<?xml version="1.0" encoding="UTF-8" standalone="no"?>
<!-- Created with Inkscape (http://www.inkscape.org/) -->

<svg
   width="87.597755mm"
   height="18.986486mm"
   viewBox="0 0 87.597755 18.986486"
   version="1.1"
   id="svg1"
   xmlns="http://www.w3.org/2000/svg"
   xmlns:svg="http://www.w3.org/2000/svg">
  <defs
     id="defs1" />
  <g
     id="layer1"
     transform="translate(-113.70262,-231.11975)">
    <text
       xml:space="preserve"
       style="font-style:normal;font-variant:normal;font-weight:normal;font-stretch:normal;font-size:25.4px;font-family:'Noto Sans';-inkscape-font-specification:'Noto Sans';text-align:start;writing-mode:lr-tb;direction:ltr;text-anchor:start;fill:#ffffff;fill-opacity:1;stroke:none;stroke-width:0.264583;stroke-opacity:1"
       x="168.71216"
       y="249.85228"
       id="text4-5-2-2"><tspan
         id="tspan4-9-6-7"
         style="font-style:normal;font-variant:normal;font-weight:normal;font-stretch:normal;font-family:'Noto Sans';-inkscape-font-specification:'Noto Sans';fill:#ffffff;fill-opacity:1;stroke:none;stroke-width:0.264583;stroke-opacity:1"
         x="168.71216"
         y="249.85228">OS</tspan></text>
    <path
       d="m 116.40633,249.93668 h 0.87231 l 9.47125,-18.13533 h -0.8723 z"
       id="path1"
       style="font-size:22.721px;font-family:'Noto Sans';-inkscape-font-specification:'Noto Sans';fill:#ffffff;stroke-width:0.236677" />
    <g
       id="g1">
      <path
         d="m 151.28276,236.22537 v 13.61415 h 1.78852 v -13.61415 z m 12.17084,0 v 13.61415 h 1.78851 v -13.61415 z"
         id="path25-1-7-9"
         style="font-size:22.721px;font-family:'Noto Sans';-inkscape-font-specification:'Noto Sans';fill:#ffffff;stroke-width:0.236677" />
      <path
         d="m 160.57056,250.09377 c -0.96203,0 -1.80873,-0.28778 -2.54041,-0.86351 -0.71814,-0.57573 -1.28075,-1.39713 -1.68724,-2.46393 -0.39294,-1.0668 -0.58911,-2.34529 -0.58911,-3.83543 0,-1.50707 0.21651,-2.78555 0.65009,-3.83542 0.44714,-1.03294 1.06361,-1.81188 1.8495,-2.33681 0.79943,-0.52493 1.71424,-0.78755 2.74402,-0.78755 0.74523,0 1.38865,0.0765 1.93063,0.22893 0.54199,0.13546 1.09088,0.35562 1.64642,0.66042 v 1.95544 c -0.56909,-0.3048 -1.12459,-0.54174 -1.66657,-0.71107 -0.52844,-0.1524 -1.13831,-0.22841 -1.82934,-0.22841 -1.08398,0 -1.93069,0.39786 -2.54042,1.19373 -0.59622,0.8128 -0.90773,1.9896 -0.93483,3.53053 0.01,1.58901 0.002,3.24906 0.91471,4.62297 0.50133,0.69427 1.1788,1.04128 2.03243,1.04128 0.90783,0 1.61133,-0.45831 2.11084,-1.06859 0.62796,-0.76725 0.77881,-1.71549 0.79232,-2.86695 l 1.60872,-1.72871 v 1.34617 c 0,1.23613 -0.18296,2.31124 -0.5488,3.22564 -0.35229,0.93133 -0.86712,1.65104 -1.54461,2.15904 -0.66392,0.508 -1.46337,0.76223 -2.3983,0.76223 z"
         id="path20-9-2-3"
         style="font-size:22.721px;font-family:'Noto Sans';-inkscape-font-specification:'Noto Sans';fill:#ffffff;stroke-width:0.236677" />
      <path
         d="m 143.96589,235.97112 c -0.69103,0 -1.34817,0.1777 -1.97145,0.5333 -0.62329,0.33867 -1.11119,0.8639 -1.46348,1.5751 h -0.10129 l -0.26458,-1.85415 h -1.4428 v 13.61415 h 1.78851 v -7.06106 c 0,-1.59174 0.23023,-2.81099 0.69092,-3.65766 0.46069,-0.84667 1.29418,-1.27021 2.5001,-1.27021 1.62597,0 2.43862,1.0924 2.43862,3.2768 v 8.71213 h 1.76836 v -8.86457 c 0,-1.76107 -0.33187,-3.03117 -0.9958,-3.8101 -0.66394,-0.79587 -1.64634,-1.19373 -2.94711,-1.19373 z"
         id="path19-6-8-6"
         style="font-size:22.721px;font-family:'Noto Sans';-inkscape-font-specification:'Noto Sans';fill:#ffffff;stroke-width:0.236677" />
      <path
         d="m 131.46639,235.97112 c -0.96203,0 -1.80873,0.28778 -2.54041,0.86351 -0.71813,0.57574 -1.28075,1.39714 -1.68724,2.46394 -0.39294,1.0668 -0.58911,2.34529 -0.58911,3.83542 0,1.50707 0.21651,2.78556 0.65009,3.83543 0.44714,1.03293 1.06361,1.81187 1.8495,2.3368 0.79943,0.52494 1.71424,0.78755 2.74402,0.78755 0.74523,0 1.38865,-0.0765 1.93063,-0.22892 0.54199,-0.13547 1.09088,-0.35563 1.64642,-0.66043 v -1.95543 c -0.56909,0.3048 -1.12458,0.54173 -1.66657,0.71106 -0.52844,0.15241 -1.13831,0.22841 -1.82934,0.22841 -1.08398,0 -1.93068,-0.39786 -2.54041,-1.19372 -0.59622,-0.8128 -0.90773,-1.9896 -0.93484,-3.53054 h 7.45898 v -1.34617 c 0,-1.23613 -0.18296,-2.31124 -0.5488,-3.22564 -0.35229,-0.93133 -0.86712,-1.65104 -1.54461,-2.15904 -0.66393,-0.508 -1.46337,-0.76223 -2.39831,-0.76223 z m -0.0201,1.82883 c 0.90783,0 1.57156,0.36431 1.99161,1.09244 0.42006,0.7112 0.6371,1.64216 0.6506,2.79363 h -5.54901 c 0.0948,-1.2192 0.38657,-2.16746 0.87436,-2.84479 0.50134,-0.69427 1.1788,-1.04128 2.03244,-1.04128 z"
         id="path18-9-2-0"
         style="font-size:22.721px;font-family:'Noto Sans';-inkscape-font-specification:'Noto Sans';fill:#ffffff;stroke-width:0.236677" />
      <path
         d="m 114.00751,231.7042 4.51188,8.68681 -4.81677,9.44851 h 1.93064 l 3.9026,-7.87393 3.8411,7.87393 h 2.07327 l -4.83744,-9.49967 4.49172,-8.63565 h -1.93063 l -3.57704,7.11171 -3.55689,-7.11171 z"
         id="path17-3-9-6"
         style="font-size:22.721px;font-family:'Noto Sans';-inkscape-font-specification:'Noto Sans';fill:#ffffff;stroke-width:0.236677" />
      <path
         d="m 152.19743,231.11974 c -0.29809,0 -0.54865,0.11846 -0.75189,0.35553 -0.20325,0.22013 -0.30489,0.57605 -0.30489,1.06712 0,0.47413 0.10164,0.82953 0.30489,1.0666 0.20324,0.23707 0.4538,0.35553 0.75189,0.35553 0.271,0 0.50782,-0.11846 0.71107,-0.35553 0.21679,-0.23707 0.32556,-0.59247 0.32556,-1.0666 0,-0.49107 -0.10877,-0.84699 -0.32556,-1.06712 -0.20325,-0.23707 -0.44007,-0.35553 -0.71107,-0.35553 z"
         id="path16-3-9-2"
         style="font-size:22.721px;font-family:'Noto Sans';-inkscape-font-specification:'Noto Sans';fill:#ffffff;stroke-width:0.236677" />
    </g>
  </g>
</svg>
