<svg xmlns="http://www.w3.org/2000/svg" viewBox="0 0 1425 316" width="1425" height="316"><defs><radialGradient id="11016722287412956044" cx="-99.90643388324861" cy="-13.472494748116134" r="0" gradientTransform="matrix(0.000549363,0,0,0.002327934,0.507690743,0.551211689)"><stop stop-color="#52ec05" stop-opacity="0.611" /><stop offset="1" stop-color="#52ec05" stop-opacity="0" /></radialGradient><linearGradient id="5607636711409410268" x1="-598.2027096825132" y1="-37.222901786480946" x2="-602.0564062644944" y2="-33.70898640944493" gradientTransform="matrix(0.035448286,0,0,0.041290066,22.042972531,1.775298557)"><stop stop-color="#ec5a36" /><stop offset="1" stop-color="#ff6600" /></linearGradient><linearGradient id="16677413471787532161" x1="-110.26856209580357" y1="-1.4660818486189413" x2="-11.786661652473327" y2="-90.3793711815851" gradientTransform="matrix(0.013093914,0,0,0.029746285,1.092092514,2.688450531)"><stop stop-color="#ffffff" /><stop offset="1" stop-color="#242424" /></linearGradient><linearGradient id="6397649392151541588" x1="-110.26856209580365" y1="-1.4660818486189484" x2="-9.763264356071915" y2="-90.37937118158509" gradientTransform="matrix(0.033099598,0,0,0.009255592,4.057053958,0.412068226)"><stop stop-color="#ffffff" /><stop offset="1" stop-color="#242424" /></linearGradient><linearGradient id="11384476111963679524" x1="-110.26856209580366" y1="-1.4660818486189697" x2="-9.763264356071858" y2="-90.37937118158507" gradientTransform="matrix(0.014859509,0,0,0.036995917,2.822952846,-2.355474702)"><stop stop-color="#ffffff" /><stop offset="1" stop-color="#242424" /></linearGradient><linearGradient id="4942808777302089588" x1="-110.26856209580359" y1="-1.4660818486189697" x2="-9.763264356071815" y2="-90.3793711815851" gradientTransform="matrix(0.022315512,0,0,0.029921601,2.496114819,2.704295503)"><stop stop-color="#ffffff" /><stop offset="1" stop-color="#242424" /></linearGradient><linearGradient id="8908577875939077343" x1="-110.26856209580365" y1="-1.4660818486189555" x2="-9.763264356071915" y2="-90.37937118158509" gradientTransform="matrix(0.033099598,0,0,0.014155313,4.057053958,1.190853958)"><stop stop-color="#ffffff" /><stop offset="1" stop-color="#242424" /></linearGradient><linearGradient id="5527194406206916897" x1="377.5111247584718" y1="-34.423400439871266" x2="513.1863918180824" y2="-62.28743309032866" gradientTransform="matrix(0.005628346,0,0,0.005662681,-1.806868232,0.511789592)"><stop stop-color="#ffffff" /><stop offset="1" stop-color="#242424" /></linearGradient><linearGradient id="10445129630473115634" x1="144.7750225082592" y1="-34.407954719418626" x2="280.45028956786973" y2="-62.271987369875994" gradientTransform="matrix(0.013493019,0,0,0.028945061,-2.588684621,2.615588747)"><stop stop-color="#ffffff" /><stop offset="1" stop-color="#242424" /></linearGradient><linearGradient id="13374259263611299410" x1="144.77502250825916" y1="-34.40795471941867" x2="280.4502895678696" y2="-62.271987369876086" gradientTransform="matrix(0.014741093,0,0,0.036995917,-2.068624932,0.402239706)"><stop stop-color="#ffffff" /><stop offset="1" stop-color="#242424" /></linearGradient><linearGradient id="11989645981385596548" x1="144.77502250825913" y1="-34.40795471941863" x2="280.4502895678698" y2="-62.271987369876044" gradientTransform="matrix(0.024157779,0,0,0.013831733,-2.99762913,-0.097758596)"><stop stop-color="#ffffff" /><stop offset="1" stop-color="#242424" /></linearGradient><linearGradient id="14601683373976659555" x1="144.7750225082592" y1="-34.423400439871244" x2="280.4502895678698" y2="-62.287433090328605" gradientTransform="matrix(0.021983965,0,0,0.029107714,-3.525428074,2.63073687)"><stop stop-color="#ffffff" /><stop offset="1" stop-color="#242424" /></linearGradient><linearGradient id="9642697633031741779" x1="144.77502250825907" y1="-34.4234004398712" x2="280.45028956786973" y2="-62.28743309032862" gradientTransform="matrix(0.025471745,0,0,0.036995917,-2.76075274,0.402239706)"><stop stop-color="#ffffff" /><stop offset="1" stop-color="#242424" /></linearGradient><linearGradient id="12743038809789385790" x1="144.7750225082591" y1="-34.423400439871244" x2="280.45028956786985" y2="-62.28743309032862" gradientTransform="matrix(0.032835253,0,0,0.020787572,-3.665477526,0.416492766)"><stop stop-color="#ffffff" /><stop offset="1" stop-color="#242424" /></linearGradient><linearGradient id="15046363897872967201" x1="-459.1526096639136" y1="-34.423400439871244" x2="-323.47734260430303" y2="-62.28743309032863" gradientTransform="matrix(0.022726751,0,0,0.030970036,10.046982384,2.799052337)"><stop stop-color="#ffffff" /><stop offset="1" stop-color="#242424" /></linearGradient><linearGradient id="9263022014495438835" x1="-465.8869561882493" y1="-34.407954719418676" x2="-330.2116891286386" y2="-62.27198736987604" gradientTransform="matrix(0.036985356,0,0,0.010777005,17.908800599,0.024414235)"><stop stop-color="#ffffff" /><stop offset="1" stop-color="#242424" /></linearGradient><linearGradient id="9173605489716849083" x1="-459.1526096639136" y1="-34.42340043987123" x2="-323.477342604303" y2="-62.28743309032863" gradientTransform="matrix(0.036985356,0,0,0.015517482,17.908800599,0.576767294)"><stop stop-color="#ffffff" /><stop offset="1" stop-color="#242424" /></linearGradient><linearGradient id="17480864078964465891" x1="-465.8869561882493" y1="-34.407954719418626" x2="-330.2116891286387" y2="-62.271987369876015" gradientTransform="matrix(0.014778098,0,0,0.036990596,6.873110737,0.673999864)"><stop stop-color="#ffffff" /><stop offset="1" stop-color="#242424" /></linearGradient><linearGradient id="14918769224460163635" x1="-459.1526096639136" y1="-34.4234004398712" x2="-323.477342604303" y2="-62.28743309032859" gradientTransform="matrix(0.030025672,0,0,0.036990596,14.538829231,0.673999864)"><stop stop-color="#ffffff" /><stop offset="1" stop-color="#242424" /></linearGradient><linearGradient id="7105015996088537114" x1="-465.8869561882493" y1="-34.40795471941865" x2="-330.2116891286387" y2="-62.271987369876044" gradientTransform="matrix(0.013769217,0,0,0.030807932,5.746193736,2.783925027)"><stop stop-color="#ffffff" /><stop offset="1" stop-color="#242424" /></linearGradient><linearGradient id="12898933040863188412" x1="101.33805035314828" y1="268.28589929554005" x2="97.48435506815467" y2="271.79981191535876" gradientTransform="matrix(0.035448291,0,0,0.041290062,-2.754548685,-10.83917896)"><stop stop-color="#ec5a36" /><stop offset="1" stop-color="#ff6600" /></linearGradient><linearGradient id="2831439601049259989" x1="589.2722002716766" y1="304.04272608049655" x2="687.7541004868256" y2="215.12943629511142" gradientTransform="matrix(0.013093913,0,0,0.029746283,-8.067633453,-6.399300932)"><stop stop-color="#ffffff" /><stop offset="1" stop-color="#242424" /></linearGradient><linearGradient id="4811808403392379451" x1="589.2721968697863" y1="304.04271463640475" x2="689.7775184929442" y2="215.12942485101962" gradientTransform="matrix(0.033099592,0,0,0.009255592,-19.097460316,-2.415596531)"><stop stop-color="#ffffff" /><stop offset="1" stop-color="#242424" /></linearGradient><linearGradient id="12184862304243424655" x1="589.2721871266397" y1="304.0427068322397" x2="689.7774967686324" y2="215.1294064475644" gradientTransform="matrix(0.014859507,0,0,0.036995911,-7.57187845,-13.658050736)"><stop stop-color="#ffffff" /><stop offset="1" stop-color="#242424" /></linearGradient><linearGradient id="10485928649328247470" x1="589.2722057873191" y1="304.042718451102" x2="689.7774914669816" y2="215.1294286657169" gradientTransform="matrix(0.022315514,0,0,0.029921599,-13.114496543,-6.437016582)"><stop stop-color="#ffffff" /><stop offset="1" stop-color="#242424" /></linearGradient><linearGradient id="2761526438275225325" x1="589.2721968697863" y1="304.042718451102" x2="689.7775184929442" y2="215.1294286657169" gradientTransform="matrix(0.033099592,0,0,0.014155313,-19.097460316,-3.133718837)"><stop stop-color="#ffffff" /><stop offset="1" stop-color="#242424" /></linearGradient><linearGradient id="14327978208443143957" x1="1077.0518854722652" y1="271.08540911106616" x2="1212.7271640971887" y2="243.2213780265306" gradientTransform="matrix(0.005628346,0,0,0.005662682,-5.744125767,-1.218209444)"><stop stop-color="#ffffff" /><stop offset="1" stop-color="#242424" /></linearGradient><linearGradient id="11943352059648628890" x1="844.3157910021112" y1="271.10084513910556" x2="979.9910858007863" y2="243.23681239374423" gradientTransform="matrix(0.013493017,0,0,0.02894506,-12.027599251,-6.227381753)"><stop stop-color="#ffffff" /><stop offset="1" stop-color="#242424" /></linearGradient><linearGradient id="16356406023306745876" x1="844.3157936321588" y1="271.10084513910556" x2="979.9910479964549" y2="243.23681239374423" gradientTransform="matrix(0.014741094,0,0,0.036995916,-12.380621322,-10.900338348)"><stop stop-color="#ffffff" /><stop offset="1" stop-color="#242424" /></linearGradient><linearGradient id="8211710716557487559" x1="844.3157813729779" y1="271.1008446622684" x2="979.9910599979014" y2="243.23681191690707" gradientTransform="matrix(0.024157776,0,0,0.013831733,-19.896977759,-4.32347463)"><stop stop-color="#ffffff" /><stop offset="1" stop-color="#242424" /></linearGradient><linearGradient id="11871642717128305364" x1="844.3157810034174" y1="271.08539942987704" x2="979.9909949333344" y2="243.22136668451571" gradientTransform="matrix(0.021983972,0,0,0.029107712,-18.904113446,-6.261925547)"><stop stop-color="#ffffff" /><stop offset="1" stop-color="#242424" /></linearGradient><linearGradient id="14619882461012438890" x1="844.3157830031562" y1="271.08539942987704" x2="979.9910131068248" y2="243.22136668451571" gradientTransform="matrix(0.025471751,0,0,0.036995916,-20.579281355,-10.900338348)"><stop stop-color="#ffffff" /><stop offset="1" stop-color="#242424" /></linearGradient><linearGradient id="4865392870020751492" x1="844.3158062609002" y1="271.08539942987704" x2="979.9911010595754" y2="243.22136668451571" gradientTransform="matrix(0.032835247,0,0,0.020787572,-26.635070333,-5.934293547)"><stop stop-color="#ffffff" /><stop offset="1" stop-color="#242424" /></linearGradient><linearGradient id="12777291884383509975" x1="240.3880904270266" y1="271.08539942987704" x2="376.0634499207083" y2="243.22136668451571" gradientTransform="matrix(0.022726737,0,0,0.030970035,-5.851302243,-6.662565858)"><stop stop-color="#ffffff" /><stop offset="1" stop-color="#242424" /></linearGradient><linearGradient id="8075234171441830091" x1="233.6537554376121" y1="271.10084537752414" x2="369.3289774544048" y2="243.2368126321628" gradientTransform="matrix(0.036985367,0,0,0.010777005,-7.963965801,-3.268055644)"><stop stop-color="#ffffff" /><stop offset="1" stop-color="#242424" /></linearGradient><linearGradient id="11084036275787977799" x1="240.38809791304288" y1="271.0853953262879" x2="376.06331992983564" y2="243.221359259275" gradientTransform="matrix(0.036985367,0,0,0.015517482,-7.963965801,-4.163959867)"><stop stop-color="#ffffff" /><stop offset="1" stop-color="#242424" /></linearGradient><linearGradient id="7092956102408765184" x1="233.65381069215096" y1="271.1008432317569" x2="369.3291054908261" y2="243.2368104863956" gradientTransform="matrix(0.014778094,0,0,0.036990596,-3.464770206,-10.626952587)"><stop stop-color="#ffffff" /><stop offset="1" stop-color="#242424" /></linearGradient><linearGradient id="7575135059371736630" x1="240.38812626258758" y1="271.0853975225284" x2="376.0634210612627" y2="243.22136477716708" gradientTransform="matrix(0.030025666,0,0,0.036990596,-6.465350822,-10.626952587)"><stop stop-color="#ffffff" /><stop offset="1" stop-color="#242424" /></linearGradient><linearGradient id="14089131762298113665" x1="233.65382471842187" y1="271.1008486667522" x2="369.32907099584213" y2="243.23681259973932" gradientTransform="matrix(0.013769219,0,0,0.03080793,-3.885935298,-6.628168853)"><stop stop-color="#ffffff" /><stop offset="1" stop-color="#242424" /></linearGradient></defs><g transform="matrix(1,0,0,1,-189,-106)">
<g transform="matrix(1,0,0,1,189,106)">
	<g transform="matrix(1,0,0,1,910,282.5)">
		<g transform="matrix(1,0,0,1,-155,-128)">
			<g>
				<g>
					<path d="M-749.9300825312457,-236.75707357388455 C-768.6349699010025,-236.59455665253336 -783.1256775813818,-235.60053903138032 -791.9962294705911,-233.5067351468606 C-787.7555932029063,-211.0110021761502 -807.3335476568027,-171.9496160625713 -823.5023665428162,-136.04779419780243 C-874.58268061743,-53.404652442841325 -916.7886653513269,-44.31869931117399 -924.1436301651302,-22.00059306784533 C-916.7886653513269,0.32131946249864995 -874.58268061743,9.407272594165988 -823.5023665428162,92.0504143491271 C-807.3335476568027,127.95592715888051 -787.7555932029063,167.00981604045955 -791.9962294705911,189.51316158520058 C-721.0204820023937,206.21860926935915 -290.4226426844252,152.97638184105745 -219.58296997702564,163.3058374064276 C-149.84688982000807,153.75505589076784 -77.97917359237908,147.4696072661318 -27.97984503011685,110.14677158230916 C-27.97984503011685,110.14677158230916 232.14999888121383,59.09292850375641 254.35091762128286,169.12253601802513 C653.6315789489308,137.82055434025824 896.1448884750716,124.6979761578259 896.1448884750716,14.762833766755648 C896.1448884750716,2.3017421307740733 892.5467938252841,-9.974110203795135 885.581173245213,-22.00059306784533 C892.5467938252841,-34.0232696448802 896.1448884750716,-46.30292826646473 896.1448884750716,-58.760213615430985 C896.1448884750716,-168.69535600650124 653.6315789489308,-181.81793418893358 254.35091762128286,-213.11991586670047 C232.14999888121383,-103.09030835243175 -27.97984503011685,-154.14795771799982 -27.97984503011685,-154.14795771799982 C-77.9829798793944,-191.46698711480713 -149.84688982000807,-197.75612668442773 -219.58296997702564,-207.30321725510294 C-281.5672582722618,-198.2663998285425 -618.9958997784561,-237.9023045973736 -749.9263050797381,-236.75707357388455" fill="url('#11016722287412956044')"/>
				</g>
			</g>
			<g>
				<g>
					<path d="M445.0668225245172,-20.170825802681065 C445.0668225245172,-20.170825802681065 445.0668225245172,6.859183705451869 445.0668225245172,6.859183705451869 C445.0668225245172,6.859183705451869 568.8527081784705,6.859183705451869 568.8527081784705,6.859183705451869 C579.8732442816399,10.821014584285876 587.7505943339129,21.71021634734643 587.7505943339129,34.59194093654514 C587.7505943339129,50.836979479128786 572.4592469662966,63.91178734896312 556.8976890631311,63.91178734896312 C524.1141866689723,64.20527157869947 491.2765950311077,63.91178734896312 458.5200783380569,63.91178734896312 C458.5200783380569,63.91178734896312 403.2359219282953,90.5942823043988 403.2359219282953,90.5942823043988 C403.2359219282953,90.5942823043988 534.7370077448941,90.4397921115924 534.7370077448941,90.4397921115924 C546.491224962032,90.41663625889487 565.6554328838683,89.43973031048517 576.6566429827508,85.3697798649846 C608.2778747654302,73.67348173996288 628.396009545213,45.30355557484654 610.6990460098241,8.253130685396172 C606.3819230399822,-0.021875473379623145 595.5428628307272,-11.316569801998412 588.3143480199433,-15.073768934220425 C580.861698696026,-18.946747329930076 574.6757275433338,-19.726799070038396 565.2770438609077,-19.923712199084548 C565.2770438609077,-19.923712199084548 564.9140920730788,-20.170825802681065 564.9140920730788,-20.170825802681065 C564.9140920730788,-20.170825802681065 501.42439706263394,-20.170825802681065 501.42439706263394,-20.170825802681065 C501.42439706263394,-20.170825802681065 445.0668225245172,-20.170825802681065 445.0668225245172,-20.170825802681065 Z" fill="#000000"/>
				</g>
				<g>
					<path d="M-484.2094223501954,-90.37937118158516 C-484.2094223501954,-90.37937118158516 -484.2094223501954,-58.30244635879717 -484.2094223501954,-58.30244635879717 C-484.2094223501954,-58.30244635879717 349.33428187399113,-55.4450259200712 349.33428187399113,-55.4450259200712 C364.5869772330334,-75.18465383540388 374.98578163731145,-88.40231505095107 400.8843950042283,-90.37937118158516 C400.8843950042283,-90.37937118158516 -484.2094223501954,-90.37937118158516 -484.2094223501954,-90.37937118158516 Z" fill="#000000"/>
				</g>
				<g>
					<path d="M-722.1546045348769,-147.65207326721247 C-722.1546045348769,-147.65207326721247 -750.7021546502178,-119.10838982574751 -750.7021546502178,-119.10838982574751 C-750.7021546502178,-119.10838982574751 -631.5770398449276,0.016717614449589746 -631.5770398449276,0.016717614449589746 C-631.5770398449276,0.016717614449589746 -750.7021546502178,119.14185451501908 -750.7021546502178,119.14185451501908 C-750.7021546502178,119.14185451501908 -722.1546045348769,147.68936780489457 -722.1546045348769,147.68936780489457 C-722.1546045348769,147.68936780489457 -603.0294970946798,28.564289825069864 -603.0294970946798,28.564289825069864 C-603.0294970946798,28.564289825069864 -512.0850918477463,119.50480630284801 -512.0850918477463,119.50480630284801 C-512.0850918477463,119.50480630284801 -426.81699331118034,147.68553795648404 -426.81699331118034,147.68553795648404 C-426.81699331118034,147.68553795648404 -574.4896582318115,0.012828845294279745 -574.4896582318115,0.012828845294279745 C-574.4896582318115,0.012828845294279745 -426.81699331118034,-147.65596203636778 -426.81699331118034,-147.65596203636778 C-426.81699331118034,-147.65596203636778 -512.0850918477463,-119.47908969151467 -512.0850918477463,-119.47908969151467 C-512.0850918477463,-119.47908969151467 -603.0333564034627,-28.530854596170684 -603.0333564034627,-28.530854596170684 C-603.0333564034627,-28.530854596170684 -722.1546045348769,-147.65207326721247 -722.1546045348769,-147.65207326721247 Z" fill="#000000"/>
				</g>
				<g>
					<path d="M-608.0841015665283,-30.766602256750048 C-608.485690632745,-30.782039491881733 -608.8795610813959,-30.635326837385946 -609.0340070836437,-30.341842607649596 C-609.3158986568451,-29.820570778603724 -608.9760879915275,-28.403409025217115 -608.3621191007605,-27.54228234029506 C-607.8601438156293,-26.83564584817941 -607.5550816595442,-26.793163991194888 -607.5435037331954,-27.434162773628486 C-607.5071790940401,-27.785801778460154 -607.4022265174053,-28.12695289072144 -607.2345822683274,-28.438172264635796 C-606.8329932021106,-29.144808756751445 -606.8407265498627,-30.025202525215718 -607.2500342336452,-30.438354787595017 C-607.4791328195261,-30.645166601763776 -607.7755041657565,-30.761829676423076 -608.0841015665283,-30.766602256750048M-598.4228081246292,-42.995779597538785 C-598.624921009402,-42.767049266312824 -598.8308932029577,-42.541736338283954 -599.0406363241791,-42.32001757568651 C-599.7627247816126,-41.56318060902049 -600.3535230894959,-40.84104796102838 -600.3535230894959,-40.70977254166428 C-600.3535230894959,-40.57849712230018 -600.0407423158449,-40.22326395203709 -599.658464523729,-39.91434248716905 C-597.5848814829633,-38.215303890767245 -595.3066372352132,-35.68218323129622 -594.6772163791284,-34.373199965320964 C-592.3178824563784,-29.469167456751165 -594.4378066629115,-25.198415113049123 -596.0403036189955,-24.87022656463887 C-595.2139549036783,-28.411127642782958 -597.8165578514281,-30.782039491881733 -599.8438144566126,-33.249522441670706 C-599.9751046061629,-33.29200429865523 -600.2029216658448,-32.87107449796531 -600.3535230894959,-32.31503942950076 C-601.1258120214798,-29.480774843472318 -602.8132579613466,-27.44965892950495 -604.9061522762131,-26.843364465745253 C-605.6321000424296,-26.631014101567416 -606.3889370090956,-26.54605038759837 -606.8291338933277,-26.631014101567416 C-607.2152857244128,-26.700540580404777 -607.5319110766604,-26.70825919797062 -607.5512223507612,-26.654169954264944 C-607.5512223507612,-26.654169954264944 -607.5512223507612,-26.65034010585441 -607.5512223507612,-26.65034010585441 C-607.5512223507612,-26.244847540296178 -603.7361335867954,-21.87375316823818 -603.384744995129,-21.87375316823818 C-603.3306852117958,-21.87375316823818 -602.7244349385946,-21.441274901571887 -602.0409690293627,-20.916114303370705 C-601.0756115469294,-20.172141699314466 -599.9815367874677,-19.45906320576978 -598.7587447509777,-18.776878822736762 C-598.7587447509777,-18.776878822736762 -617.857388614063,-18.776878822736762 -617.857388614063,-18.776878822736762 C-620.058402495596,-18.776878822736762 -621.8346567280287,-20.54538497723115 -621.8346567280287,-22.746428319136612 C-621.8346567280287,-22.746428319136612 -621.8346567280287,-39.022341331983625 -621.8346567280287,-39.022341331983625 C-621.8346567280287,-41.223384673889086 -620.058402495596,-42.995779597538785 -617.857388614063,-42.995779597538785 C-617.857388614063,-42.995779597538785 -598.4228081246292,-42.995779597538785 -598.4228081246292,-42.995779597538785 Z" fill="url('#5607636711409410268')"/>
				</g>
				<g>
					<path d="M-613.6831779106788,-57.40661535520121 C-614.0152552282443,-57.483860451604414 -615.0269538764451,-57.13628697816239 -617.1932192487457,-56.356294158798846 C-623.2942708780274,-54.15530973763816 -627.6576908230782,-49.509998219386034 -630.1405962778126,-42.571019948438334 C-631.1831693962768,-39.65562149685138 -632.1099190606947,-38.61690768717017 -636.4463091140788,-35.49687748897122 C-661.9433334147789,-2.311712377664662 -633.1679441444767,36.26782368024942 -635.9558970251101,33.5841015971273 C-635.9558970251101,33.5841015971273 -637.3344362302951,31.244123139036674 -637.102745131644,27.965772899620788 C-636.199180780296,15.045396301848086 -636.3420488561951,-20.611022686913202 -600.7666900820614,-6.161593841421563 C-588.997050359978,-1.3811181346500234 -586.3983067210111,-3.3929080443303974 -583.4481744903778,-6.335351117770188 C-581.1120111505115,-8.671499727450282 -581.2857831570464,-9.598264122054388 -584.3478942631291,-11.181405613479 C-589.2519120415127,-13.710696424539492 -593.5458202379123,-18.18608051485353 -595.8163458680965,-23.12870611125254 C-597.519229043095,-26.83564584817941 -599.1062740338612,-29.731718295479368 -600.6817410982785,-31.94048025495067 C-602.5120551140444,-34.51602385066144 -604.3269318946786,-36.176469359234034 -606.2923953687778,-37.14182684166735 C-606.2923953687778,-37.14182684166735 -607.4083542748622,-37.72101776282943 -607.4083542748622,-37.72101776282943 C-609.0842075581941,-40.71366131081959 -608.6440106739619,-44.36268195563025 -605.8521984845456,-49.75328197457202 C-605.4660466534606,-50.417436609703145 -605.2729781030112,-50.78427716668739 -605.5471363284605,-50.84991487636944 C-605.8792283762123,-50.927101052027865 -606.890927024413,-50.57958649933062 -609.0571776665274,-49.799593679967074 C-611.6806532881146,-48.87489151143018 -614.0784771873905,-47.40487784997822 -616.0927123079791,-45.48635947928051 C-617.0657884079783,-48.251156507216365 -616.4170710079788,-51.62218907816714 -613.9882253365777,-56.30609368424848 C-613.6020882356788,-56.97413708853492 -613.4090196852294,-57.33708887636385 -613.6831779106788,-57.40661535520121" fill="#ff6600"/>
				</g>
				<g>
					<path d="M-530.909562755196,44.49268828521963 C-527.8513109578962,46.50058942574469 -523.7311600378453,45.62791427484626 -520.8196503554136,44.95604102214929 C-514.7996884011318,43.56592389061552 -509.64468298018255,43.75900717125114 -504.8410514207135,45.55455794759837 C-500.87536123309656,47.03346864151172 -496.9946347594487,49.775109816750046 -495.04459379029504,52.46649159669323 C-493.7973594648465,54.196463584103185 -492.86290591304896,57.33964963499966 -493.40736305516475,57.969041030712106 C-493.74329968151324,58.355207591983344 -493.998161363048,58.27796249558014 -495.1836172875974,57.42844319737924 C-496.27253157182895,56.65228022642623 -497.0911469393941,56.41677400955086 -497.10275432611525,56.876296898069995 C-497.10275432611525,57.0075723174341 -495.6971704990774,58.48265316293691 -493.97497604997807,60.14692851992004 C-492.2489222920958,61.8150337253137 -490.345251949082,63.72642268589334 -489.75059433241586,64.40218470774562 C-486.5648969641625,67.97790794605316 -484.6419006168617,72.67336101811088 -484.0665690044825,78.27631140123049 C-483.8734857238469,80.17998174424429 -483.90053034569974,81.09902752128255 -484.16308118442794,81.18782108366213 C-484.52606243262926,81.3152666546157 -484.7423015659624,80.92527024493393 -485.0975641965979,79.54670157937653 C-486.4606367062788,74.17931633387707 -489.7351276369118,69.34869907329994 -494.0174579069626,66.39081876472846 C-498.35493799412507,63.34237727143409 -503.46884619559205,61.58818885792061 -508.7642597513459,61.33235498409704 C-513.7764118265823,61.06208552780299 -516.8925827159983,61.652883835686225 -527.2527940324471,64.83855174356722 C-531.3459003306452,66.09739345573689 -534.4813972243483,66.96234998906948 -535.8251731901146,67.19785620594484 C-539.9337167234444,67.93153731991333 -545.8571664977808,67.85818099266544 -548.0349950662439,67.05497339985959 C-551.1922631751422,65.93282781557355 -553.5621733715798,63.28216027027156 -554.3252853975646,60.01948294896647 C-554.6148808581456,58.80312309378132 -554.5994436230139,56.196646107062406 -554.2943814669288,54.79881035796279 C-553.6147601362936,51.65173553791101 -555.7231211466642,48.87539004399878 -557.4993753790968,50.57053987124527 C-558.2639309633287,51.30422098521376 -558.5689931194138,52.578499932515115 -558.3334279817936,54.061299395583774 C-558.1249074660263,55.35101557801681 -557.3912558124302,57.544281381611654 -556.8236133572445,58.55983933859534 C-556.2945934502604,59.4982111199206 -556.3525125423766,60.038808953253465 -556.9780740896786,60.09672804536967 C-557.3796778860815,60.135321133198886 -557.6074949457634,59.91908199986574 -558.7852322527469,58.37836344468087 C-561.6349635342794,54.644379085901164 -563.80122890658,50.73274868161752 -564.9364843565791,47.25742639241071 C-565.5427346297802,45.415563910668425 -566.1335329376634,42.78976091966251 -566.620070987663,39.83576938024635 C-567.7514671288791,39.055776560882805 -565.8941232214465,21.493977214013285 -530.909562755196,44.49268828521963" fill="#ff6600"/>
				</g>
				<g>
					<path d="M-631.5731805361447,0.016717614449589746 C-631.5731805361447,0.016717614449589746 -750.7060176415473,119.13796574586377 -750.7060176415473,119.13796574586377 C-750.7060176415473,119.13796574586377 -722.1546045348769,147.68936780489457 -722.1546045348769,147.68936780489457 C-722.1546045348769,147.68936780489457 -603.0294970946798,28.564289825069864 -603.0294970946798,28.564289825069864 C-603.0294970946798,28.564289825069864 -512.0850918477463,119.50480630284801 -512.0850918477463,119.50480630284801 C-512.0850918477463,119.50480630284801 -426.8131340023974,147.68553795648404 -426.8131340023974,147.68553795648404 C-426.8131340023974,147.68553795648404 -574.4857989230286,0.012828845294279745 -574.4857989230286,0.012828845294279745 C-574.4857989230286,0.012828845294279745 -631.5731805361447,0.016717614449589746 -631.5731805361447,0.016717614449589746 Z" fill="#000000"/>
				</g>
				<g>
					<path d="M-484.2132816589783,-90.37937118158516 C-484.2132816589783,-90.37937118158516 -484.2132816589783,-58.64996091149442 -484.2132816589783,-58.64996091149442 C-484.2132816589783,-58.64996091149442 -338.0504460930824,-58.64996091149442 -338.0504460930824,-58.64996091149442 C-338.0504460930824,-58.64996091149442 -303.3052953430488,-90.37937118158516 -303.3052953430488,-90.37937118158516 C-303.3052953430488,-90.37937118158516 -484.2132816589783,-90.37937118158516 -484.2132816589783,-90.37937118158516 Z" fill="#000000"/>
				</g>
				<g>
					<path d="M-484.2132816589783,-90.38323049036808 C-484.2132816589783,-90.38323049036808 -457.17941284206245,-90.38323049036808 -457.17941284206245,-90.38323049036808 C-457.17941284206245,-90.38323049036808 -457.17941284206245,90.52475582556144 -457.17941284206245,90.52475582556144 C-457.17941284206245,90.52475582556144 -484.2132816589783,90.52475582556144 -484.2132816589783,90.52475582556144 C-484.2132816589783,90.52475582556144 -484.2132816589783,-90.38323049036808 -484.2132816589783,-90.38323049036808 Z" fill="#000000"/>
				</g>
				<g>
					<path d="M-484.2132816589783,63.490916469017975 C-484.2132816589783,63.490916469017975 -484.2132816589783,90.52475582556144 -484.2132816589783,90.52475582556144 C-484.2132816589783,90.52475582556144 -338.0504460930824,90.52475582556144 -338.0504460930824,90.52475582556144 C-338.0504460930824,90.52475582556144 -303.3052953430488,63.49474631742851 -303.3052953430488,63.49474631742851 C-303.3052953430488,63.49474631742851 -484.2132816589783,63.490916469017975 -484.2132816589783,63.490916469017975 Z" fill="#000000"/>
				</g>
				<g>
					<path d="M-457.1755535332795,90.52475582556144 C-457.1755535332795,90.52475582556144 -484.2132816589783,90.52475582556144 -484.2132816589783,90.52475582556144 C-484.2132816589783,90.52475582556144 -484.2132816589783,-55.638050279962044 -484.2132816589783,-55.638050279962044 C-484.2132816589783,-55.638050279962044 -457.17941284206245,-90.37937118158516 -457.17941284206245,-90.37937118158516 C-457.17941284206245,-90.37937118158516 -457.1755535332795,90.52475582556144 -457.1755535332795,90.52475582556144 Z" fill="#000000"/>
				</g>
				<g>
					<path d="M-484.2132816589783,-18.22084375427221 C-484.2132816589783,-18.22084375427221 -484.2132816589783,8.813054523016035 -484.2132816589783,8.813054523016035 C-484.2132816589783,8.813054523016035 -378.90438182014987,8.813054523016035 -378.90438182014987,8.813054523016035 C-378.90438182014987,8.813054523016035 -344.16309037889914,-18.2169549851169 -344.16309037889914,-18.2169549851169 C-344.16309037889914,-18.2169549851169 -484.2132816589783,-18.22084375427221 -484.2132816589783,-18.22084375427221 Z" fill="#000000"/>
				</g>
				<g>
					<path d="M-206.452907017283,90.52475582556144 C-206.452907017283,90.52475582556144 -235.56034414477836,90.69851310191007 -235.56034414477836,90.69851310191007 C-235.56034414477836,90.69851310191007 -232.08508077631632,-58.64996091149442 -232.08508077631632,-58.64996091149442 C-232.08508077631632,-58.64996091149442 -202.05476802337216,-72.31945585836729 -202.05476802337216,-72.31945585836729 C-202.05476802337216,-72.31945585836729 -206.452907017283,90.52475582556144 -206.452907017283,90.52475582556144 Z" fill="#000000"/>
				</g>
				<g>
					<path d="M-207.89711339252244,85.62461208614695 C-207.89711339252244,85.62461208614695 -235.56034414477836,90.69851310191007 -235.56034414477836,90.69851310191007 C-235.56034414477836,90.69851310191007 -330.28124506784843,-64.10230987096293 -330.28124506784843,-64.10230987096293 C-330.28124506784843,-64.10230987096293 -301.88041497209633,-69.37318293651697 -301.88041497209633,-69.37318293651697 C-301.88041497209633,-69.37318293651697 -207.89711339252244,85.62461208614695 -207.89711339252244,85.62461208614695 Z" fill="#000000"/>
				</g>
				<g>
					<path d="M-301.88041497209633,-69.00634237953273 C-301.88041497209633,-69.00634237953273 -331.0651266563673,-68.78238462863374 -331.0651266563673,-68.78238462863374 C-331.0651266563673,-68.78238462863374 -327.51261819150204,63.490916469017975 -327.51261819150204,63.490916469017975 C-327.51261819150204,63.490916469017975 -297.4822759781855,90.52475582556144 -297.4822759781855,90.52475582556144 C-297.4822759781855,90.52475582556144 -301.88041497209633,-69.00634237953273 -301.88041497209633,-69.00634237953273 Z" fill="#000000"/>
				</g>
				<g>
					<path d="M-92.36307804464741,-90.38323049036808 C-92.36307804464741,-90.38323049036808 -122.57109576384028,-90.38323049036808 -122.57109576384028,-90.38323049036808 C-122.57109576384028,-90.38323049036808 -122.57109576384028,71.1712944715 -122.57109576384028,71.1712944715 C-122.57109576384028,71.1712944715 -92.36307804464741,90.37415440191035 -92.36307804464741,90.37415440191035 C-92.36307804464741,90.37415440191035 -92.36307804464741,-90.38323049036808 -92.36307804464741,-90.38323049036808 Z" fill="#000000"/>
				</g>
				<g>
					<path d="M-178.20653765396492,63.66850359377713 C-178.20653765396492,63.66850359377713 -207.90094324093297,90.69851310191007 -207.90094324093297,90.69851310191007 C-207.90094324093297,90.69851310191007 -7.037060415965243,90.69851310191007 -7.037060415965243,90.69851310191007 C-7.037060415965243,90.69851310191007 -36.72763615452277,63.66850359377713 -36.72763615452277,63.66850359377713 C-36.72763615452277,63.66850359377713 -161.62170317624987,63.66850359377713 -161.62170317624987,63.66850359377713 C-161.62170317624987,63.66850359377713 -178.20653765396492,63.66850359377713 -178.20653765396492,63.66850359377713 Z" fill="#000000"/>
				</g>
				<g>
					<path d="M71.5893739277999,-76.04961036873647 C71.5893739277999,-76.04961036873647 40.93344070680905,-90.38323049036808 40.93344070680905,-90.38323049036808 C40.93344070680905,-90.38323049036808 -22.29747439257335,47.832787465162255 -22.29747439257335,47.832787465162255 C-22.29747439257335,47.832787465162255 -4.558029000199895,90.69851310191007 -4.558029000199895,90.69851310191007 C-4.558029000199895,90.69851310191007 71.5893739277999,-76.04961036873647 71.5893739277999,-76.04961036873647 ZM71.5893739277999,-76.04961036873647 C71.5893739277999,-76.04961036873647 102.24135945889066,-90.38323049036808 102.24135945889066,-90.38323049036808 C102.24135945889066,-90.38323049036808 165.47616332742837,47.832787465162255 165.47616332742837,47.832787465162255 C165.47616332742837,47.832787465162255 147.73288808664438,90.69851310191007 147.73288808664438,90.69851310191007 C147.73288808664438,90.69851310191007 71.5893739277999,-76.04961036873647 71.5893739277999,-76.04961036873647 Z" fill="#000000"/>
				</g>
				<g>
					<path d="M24.46833318248173,-10.876372917766275 C24.46833318248173,-10.876372917766275 24.46833318248173,16.157466438777192 24.46833318248173,16.157466438777192 C24.46833318248173,16.157466438777192 202.92424432338157,16.157466438777192 202.92424432338157,16.157466438777192 C202.92424432338157,16.157466438777192 261.79950228583766,-10.872543069355743 261.79950228583766,-10.872543069355743 C261.79950228583766,-10.872543069355743 24.46833318248173,-10.876372917766275 24.46833318248173,-10.876372917766275 Z" fill="#000000"/>
				</g>
				<g>
					<path d="M400.8843950042283,-90.37937118158516 C400.8843950042283,-90.37937118158516 466.51703750222805,-54.95073979213339 466.51703750222805,-54.95073979213339 C466.51703750222805,-54.95073979213339 593.338048561156,-54.510542907901254 593.338048561156,-54.510542907901254 C593.338048561156,-54.510542907901254 662.863113300642,-90.38323049036808 662.863113300642,-90.38323049036808 C662.863113300642,-90.38323049036808 400.8843950042283,-90.37937118158516 400.8843950042283,-90.37937118158516 Z" fill="#000000"/>
				</g>
				<g>
					<path d="M492.18397450068005,0.15960042053484358 C492.18397450068005,50.16510622643182 451.3068829209151,90.69851310191007 400.8843950042283,90.69851310191007 C350.4617892460519,90.69851310191007 309.58469766628696,50.16121745727651 309.58469766628696,0.15960042053484358 C309.58469766628696,-49.8420755369516 350.4617892460519,-90.37937118158516 400.8843950042283,-90.37937118158516 C451.3068829209151,-90.37937118158516 492.18397450068005,-49.84590538536213 492.18397450068005,0.15960042053484358" fill="#000000"/>
				</g>
				<g>
					<path d="M-161.62170317624987,-90.37937118158516 C-161.62170317624987,-90.37937118158516 -161.62170317624987,-57.17105021758107 -161.62170317624987,-57.17105021758107 C-161.62170317624987,-57.17105021758107 -36.72763615452277,-57.17105021758107 -36.72763615452277,-57.17105021758107 C-36.72763615452277,-57.17105021758107 -7.03323056755471,-90.37937118158516 -7.03323056755471,-90.37937118158516 C-7.03323056755471,-90.37937118158516 -161.62170317624987,-90.37937118158516 -161.62170317624987,-90.37937118158516 Z" fill="#000000"/>
				</g>
				<g>
					<path d="M-53.30858186308251,-90.37937118158516 C-53.30858186308251,-90.37937118158516 -53.30858186308251,-57.23668792726312 -53.30858186308251,-57.23668792726312 C-53.30858186308251,-57.23668792726312 -178.20653765396492,-57.23668792726312 -178.20653765396492,-57.23668792726312 C-178.20653765396492,-57.23668792726312 -207.89711339252244,-90.38323049036808 -207.89711339252244,-90.38323049036808 C-207.89711339252244,-90.38323049036808 -53.30858186308251,-90.37937118158516 -53.30858186308251,-90.37937118158516 Z" fill="#000000"/>
				</g>
				<g>
					<g>
						<path d="M-59.336291895302566,-90.37937118158516 C-59.336291895302566,-90.37937118158516 -66.14399474688616,-80.84163454148438 -66.14399474688616,-80.84163454148438 C-66.14399474688616,-80.84163454148438 -66.20191383900237,-80.76055959667065 -66.20191383900237,-80.76055959667065 C-66.20191383900237,-80.76055959667065 -83.40459124645349,-56.931655231550394 -83.40459124645349,-56.931655231550394 C-83.40459124645349,-56.931655231550394 -33.808407854525285,-56.7617278036123 -33.808407854525285,-56.7617278036123 C-33.808407854525285,-56.7617278036123 -7.03323056755471,-90.37937118158516 -7.03323056755471,-90.37937118158516 C-7.03323056755471,-90.37937118158516 -59.336291895302566,-90.37937118158516 -59.336291895302566,-90.37937118158516 Z" fill="url('#16677413471787532161')"/>
					</g>
					<g>
						<path d="M-92.35924819623688,-44.52100199684719 C-92.35924819623688,-44.52100199684719 -122.57109576384028,-2.670834317083063 -122.57109576384028,-2.670834317083063 C-122.57109576384028,-2.670834317083063 -122.57109576384028,63.521790939281345 -122.57109576384028,63.521790939281345 C-122.57109576384028,63.521790939281345 -92.35924819623688,22.602217502531857 -92.35924819623688,22.602217502531857 C-92.35924819623688,22.602217502531857 -92.35924819623688,-44.52100199684719 -92.35924819623688,-44.52100199684719 Z" fill="url('#6397649392151541588')"/>
					</g>
					<g>
						<path d="M-170.46441071095614,63.66850359377713 C-170.46441071095614,63.66850359377713 -189.97619210623452,90.69851310191007 -189.97619210623452,90.69851310191007 C-189.97619210623452,90.69851310191007 -142.6389122275832,90.69851310191007 -142.6389122275832,90.69851310191007 C-142.6389122275832,90.69851310191007 -122.67921533050685,63.66850359377713 -122.67921533050685,63.66850359377713 C-122.67921533050685,63.66850359377713 -161.62559194540518,63.66850359377713 -161.62559194540518,63.66850359377713 C-161.62559194540518,63.66850359377713 -170.46441071095614,63.66850359377713 -170.46441071095614,63.66850359377713 Z" fill="url('#11384476111963679524')"/>
					</g>
				</g>
				<g>
					<path d="M-87.86064933248053,-90.37937118158516 C-87.86064933248053,-90.37937118158516 -89.05002348655762,-88.7266737509508 -89.05002348655762,-88.7266737509508 C-89.05002348655762,-88.7266737509508 -92.58320594713587,-83.81492262481515 -92.58320594713587,-83.81492262481515 C-92.58320594713587,-83.81492262481515 -111.85559235638357,-57.028167411495815 -111.85559235638357,-57.028167411495815 C-111.85559235638357,-57.028167411495815 -91.22013343745493,-56.95869985340323 -91.22013343745493,-56.95869985340323 C-91.22013343745493,-56.95869985340323 -72.03654059058681,-83.56392025206333 -72.03654059058681,-83.56392025206333 C-72.03654059058681,-83.56392025206333 -67.04371451963743,-90.37937118158516 -67.04371451963743,-90.37937118158516 C-67.04371451963743,-90.37937118158516 -87.86064933248053,-90.37937118158516 -87.86064933248053,-90.37937118158516 Z" fill="url('#4942808777302089588')"/>
				</g>
				<g>
					<path d="M-92.35924819623688,-84.12770339846611 C-92.35924819623688,-84.12770339846611 -92.58320594713587,-83.81878193359807 -92.58320594713587,-83.81878193359807 C-92.58320594713587,-83.81878193359807 -122.57109576384028,-42.13465291261673 -122.57109576384028,-42.13465291261673 C-122.57109576384028,-42.13465291261673 -122.57109576384028,-13.482849904485192 -122.57109576384028,-13.482849904485192 C-122.57109576384028,-13.482849904485192 -92.35924819623688,-55.37549944123384 -92.35924819623688,-55.37549944123384 C-92.35924819623688,-55.37549944123384 -92.35924819623688,-84.12770339846611 -92.35924819623688,-84.12770339846611 Z" fill="url('#8908577875939077343')"/>
				</g>
				<g>
					<path d="M417.76648463934544,-90.37937118158516 C417.76648463934544,-90.37937118158516 416.5772283267579,-88.7266737509508 416.5772283267579,-88.7266737509508 C416.5772283267579,-88.7266737509508 413.0439869454349,-83.81492262481515 413.0439869454349,-83.81492262481515 C413.0439869454349,-83.81492262481515 321.0300523393016,44.08336587125086 321.0300523393016,44.08336587125086 C323.7008118585727,48.84587075086529 326.7961542647099,53.357608940706996 330.2781345980766,57.56360738589865 C330.2781345980766,57.56360738589865 427.9027382048953,-75.7908893784188 427.9027382048953,-75.7908893784188 C427.9027382048953,-75.7908893784188 427.9066269740506,-75.7908893784188 427.9066269740506,-75.7908893784188 C427.9066269740506,-75.7908893784188 438.5874260628334,-90.37937118158516 438.5874260628334,-90.37937118158516 C438.5874260628334,-90.37937118158516 417.76648463934544,-90.37937118158516 417.76648463934544,-90.37937118158516 ZM498.7021408124274,-90.37937118158516 C498.7021408124274,-90.37937118158516 449.12905435245193,-90.36390448608108 449.12905435245193,-90.36390448608108 C449.12905435245193,-90.36390448608108 437.8073154019803,-74.49345457841991 437.8073154019803,-74.49345457841991 C437.8073154019803,-74.49345457841991 436.50222090516036,-72.67085918021985 436.50222090516036,-72.67085918021985 C436.50222090516036,-72.67085918021985 337.765429319923,65.57606270594624 337.765429319923,65.57606270594624 C347.6376001073804,74.94728932130602 359.4759561480605,81.9982759280756 372.41789773842174,86.21541039403019 C372.41789773842174,86.21541039403019 473.3557326655646,-54.91986532187002 473.3557326655646,-54.91986532187002 C473.3557326655646,-54.91986532187002 498.7021408124274,-90.37937118158516 498.7021408124274,-90.37937118158516 Z" fill="url('#5527194406206916897')"/>
				</g>
				<g>
					<path d="M265.96602383202844,-90.36390448608108 C265.96602383202844,-90.36390448608108 216.39293737205298,-90.3484672509494 216.39293737205298,-90.3484672509494 C216.39293737205298,-90.3484672509494 191.85362558715133,-55.98173498424876 191.85362558715133,-55.98173498424876 C191.85362558715133,-55.98173498424876 240.84740328447515,-55.81569632546598 240.84740328447515,-55.81569632546598 C240.84740328447515,-55.81569632546598 265.96602383202844,-90.36390448608108 265.96602383202844,-90.36390448608108 Z" fill="url('#10445129630473115634')"/>
				</g>
				<g>
					<path d="M159.63764780668862,-10.872543069355743 C159.63764780668862,-10.872543069355743 140.33049815802224,16.157466438777192 140.33049815802224,16.157466438777192 C140.33049815802224,16.157466438777192 188.51340856571915,16.157466438777192 188.51340856571915,16.157466438777192 C188.51340856571915,16.157466438777192 208.16807276708278,-10.872543069355743 208.16807276708278,-10.872543069355743 C208.16807276708278,-10.872543069355743 159.63764780668862,-10.872543069355743 159.63764780668862,-10.872543069355743 Z" fill="url('#13374259263611299410')"/>
				</g>
				<g>
					<path d="M146.82544969632727,7.067704221219174 C146.82544969632727,7.067704221219174 124.0854596154386,38.90906390638702 124.0854596154386,38.90906390638702 C124.0854596154386,38.90906390638702 142.55858612178054,79.36522568546206 142.55858612178054,79.36522568546206 C142.55858612178054,79.36522568546206 165.46844470986252,47.85594331785978 165.46844470986252,47.85594331785978 C165.46844470986252,47.85594331785978 165.4799931758389,47.832787465162255 165.4799931758389,47.832787465162255 C165.4799931758389,47.832787465162255 146.82544969632727,7.067704221219174 146.82544969632727,7.067704221219174 Z" fill="url('#11989645981385596548')"/>
				</g>
				<g>
					<path d="M185.03048550043604,-90.37937118158516 C185.03048550043604,-90.37937118158516 183.84111134635896,-88.7266737509508 183.84111134635896,-88.7266737509508 C183.84111134635896,-88.7266737509508 180.3079288857807,-83.81492262481515 180.3079288857807,-83.81492262481515 C180.3079288857807,-83.81492262481515 160.36361030309126,-56.089854550915334 160.36361030309126,-56.089854550915334 C160.36361030309126,-56.089854550915334 180.69792529546248,-56.02421684123328 180.69792529546248,-56.02421684123328 C180.69792529546248,-56.02421684123328 195.1667390659859,-75.7908893784188 195.1667390659859,-75.7908893784188 C195.1667390659859,-75.7908893784188 195.17050999365165,-75.7908893784188 195.17050999365165,-75.7908893784188 C195.17050999365165,-75.7908893784188 205.85130908243445,-90.37937118158516 205.85130908243445,-90.37937118158516 C205.85130908243445,-90.37937118158516 185.03048550043604,-90.37937118158516 185.03048550043604,-90.37937118158516 Z" fill="url('#14601683373976659555')"/>
				</g>
				<g>
					<path d="M127.83105136093945,-10.872543069355743 C127.83105136093945,-10.872543069355743 108.38490767534313,16.157466438777192 108.38490767534313,16.157466438777192 C108.38490767534313,16.157466438777192 127.85426613438176,16.157466438777192 127.85426613438176,16.157466438777192 C127.85426613438176,16.157466438777192 147.6440945242648,-10.872543069355743 147.6440945242648,-10.872543069355743 C147.6440945242648,-10.872543069355743 127.83105136093945,-10.872543069355743 127.83105136093945,-10.872543069355743 Z" fill="url('#9642697633031741779')"/>
				</g>
				<g>
					<path d="M134.42640384834522,-20.035661614161654 C134.42640384834522,-20.035661614161654 111.63238344449564,11.643489260633942 111.63238344449564,11.643489260633942 C111.63238344449564,11.643489260633942 119.13511540147374,28.07000369713205 119.13511540147374,28.07000369713205 C119.13511540147374,28.07000369713205 142.08745584654025,-3.284788477663824 142.08745584654025,-3.284788477663824 C142.08745584654025,-3.284788477663824 134.42640384834522,-20.035661614161654 134.42640384834522,-20.035661614161654 Z" fill="url('#12743038809789385790')"/>
				</g>
				<g>
					<path d="M-418.89719086229525,-90.37937118158516 C-418.89719086229525,-90.37937118158516 -420.08653555599994,-88.7266737509508 -420.08653555599994,-88.7266737509508 C-420.08653555599994,-88.7266737509508 -423.6197474769506,-83.81492262481515 -423.6197474769506,-83.81492262481515 C-423.6197474769506,-83.81492262481515 -442.07737782741606,-58.159563552711916 -442.07737782741606,-58.159563552711916 C-442.07737782741606,-58.159563552711916 -421.7199069823473,-58.09009599461933 -421.7199069823473,-58.09009599461933 C-421.7199069823473,-58.09009599461933 -408.7609372967454,-75.7908893784188 -408.7609372967454,-75.7908893784188 C-408.7609372967454,-75.7908893784188 -398.07636728029684,-90.37937118158516 -398.07636728029684,-90.37937118158516 C-398.07636728029684,-90.37937118158516 -418.89719086229525,-90.37937118158516 -418.89719086229525,-90.37937118158516 Z" fill="url('#15046363897872967201')"/>
				</g>
				<g>
					<path d="M-457.1755535332795,-2.2654006722696067 C-457.1755535332795,-2.2654006722696067 -484.2132816589783,35.59595042755245 -484.2132816589783,35.59595042755245 C-484.2132816589783,35.59595042755245 -484.2132816589783,90.52475582556144 -484.2132816589783,90.52475582556144 C-484.2132816589783,90.52475582556144 -477.0078637801471,90.52475582556144 -477.0078637801471,90.52475582556144 C-470.391947952814,81.51734516895397 -463.7811778705248,72.50606538343948 -457.1755535332795,63.490916469017975 C-457.1755535332795,63.490916469017975 -457.1755535332795,-2.2654006722696067 -457.1755535332795,-2.2654006722696067 Z" fill="url('#9263022014495438835')"/>
				</g>
				<g>
					<path d="M-457.1755535332795,-37.16887146352019 C-457.1755535332795,-37.16887146352019 -484.2132816589783,0.40671402413136093 -484.2132816589783,0.40671402413136093 C-484.2132816589783,0.40671402413136093 -484.2132816589783,27.274573642636824 -484.2132816589783,27.274573642636824 C-484.2132816589783,27.274573642636824 -457.1755535332795,-9.656183214170596 -457.1755535332795,-9.656183214170596 C-457.1755535332795,-9.656183214170596 -457.1755535332795,-37.16887146352019 -457.1755535332795,-37.16887146352019 Z" fill="url('#9173605489716849083')"/>
				</g>
				<g>
					<path d="M-445.7843470247153,-18.22084375427221 C-445.7843470247153,-18.22084375427221 -465.0876373645988,8.813054523016035 -465.0876373645988,8.813054523016035 C-465.0876373645988,8.813054523016035 -417.16727779563007,8.813054523016035 -417.16727779563007,8.813054523016035 C-417.16727779563007,8.813054523016035 -397.41993126273155,-18.2169549851169 -397.41993126273155,-18.2169549851169 C-397.41993126273155,-18.2169549851169 -445.7843470247153,-18.22084375427221 -445.7843470247153,-18.22084375427221 Z" fill="url('#17480864078964465891')"/>
				</g>
				<g>
					<path d="M-470.8063964715784,-18.22084375427221 C-470.8063964715784,-18.22084375427221 -484.2132816589783,0.40671402413136093 -484.2132816589783,0.40671402413136093 C-484.2132816589783,0.40671402413136093 -484.2132816589783,8.813054523016035 -484.2132816589783,8.813054523016035 C-484.2132816589783,8.813054523016035 -470.69827690491184,8.813054523016035 -470.69827690491184,8.813054523016035 C-470.69827690491184,8.813054523016035 -450.9084485150288,-18.22084375427221 -450.9084485150288,-18.22084375427221 C-450.9084485150288,-18.22084375427221 -470.8063964715784,-18.22084375427221 -470.8063964715784,-18.22084375427221 Z" fill="url('#14918769224460163635')"/>
				</g>
				<g>
					<path d="M-344.69596959466617,-90.36390448608108 C-344.69596959466617,-90.36390448608108 -394.26899713389685,-90.3484672509494 -394.26899713389685,-90.3484672509494 C-394.26899713389685,-90.3484672509494 -417.3217385280641,-58.07076999033234 -417.3217385280641,-58.07076999033234 C-417.3217385280641,-58.07076999033234 -368.4244435503133,-57.904731331549556 -368.4244435503133,-57.904731331549556 C-360.5188115405472,-68.72446553651753 -352.60932022199813,-79.5429034851004 -344.69596959466617,-90.36004517729816 C-344.69596959466617,-90.36004517729816 -344.69596959466617,-90.36390448608108 -344.69596959466617,-90.36390448608108 Z" fill="url('#7105015996088537114')"/>
				</g>
			</g>
		</g>
	</g>
	<g transform="matrix(1,0,0,1,910,282.5)">
		<g>
			<g>
				<g>
					<g>
						<g>
							<g>
								<g>
									<path d="M-50.38929112236633,68.7517202306583 C-69.09418614189758,68.91424159296298 -83.58490879814758,69.90826014765048 -92.45545323174133,72.00207118280673 C-88.21485264580383,94.49779872186923 -107.79279454033508,133.55918483026767 -123.96161778252258,169.46100978143954 C-175.04194004814758,252.1041486669376 -217.24787266533508,261.19010142572665 -224.60285313408508,283.5082071233585 C-217.24787266533508,305.83011976965213 -175.04194004814758,314.9160726476505 -123.96161778252258,397.5592153478458 C-107.79279454033508,433.46472529657626 -88.21485264580383,472.5186117101505 -92.45545323174133,495.02196864374423 C-21.47974522392883,511.72741297968173 409.11812464911804,458.48517970331454 479.9577852936493,468.814632217963 C549.6938692780243,459.263850967963 621.5615908356415,452.9784048009708 671.5609175415741,415.6555746007755 C671.5609175415741,415.6555746007755 931.6907564850555,364.6017301488712 953.8916842194305,474.63134364374423 C1353.1723543854462,443.3293569494083 1595.6856600495087,430.2067754674747 1595.6856600495087,320.2716339040592 C1595.6856600495087,307.8105423856571 1592.087576553415,295.5346897054508 1585.1219393463837,283.5082071233585 C1592.087576553415,271.485530655463 1595.6856600495087,259.20587138422275 1595.6856600495087,246.74858836420321 C1595.6856600495087,136.8134420324161 1353.1723543854462,123.69086817987704 953.8916842194305,92.3888814855411 C931.6907564850555,202.4184911657169 671.5609175415741,151.36083583124423 671.5609175415741,151.36083583124423 C621.5577837677704,114.04182032831454 549.6938692780243,107.75266627558017 479.9577852936493,98.2055776525333 C417.97350184638367,107.2423971105411 80.54485194403992,67.60650233515048 -50.38556797783508,68.7517202306583" fill="#52ec05" fill-opacity="0"/>
								</g>
							</g>
						</g>
						<g>
							<g>
								<g>
									<path d="M1144.607596084665,285.33797435053134 C1144.607596084665,285.33797435053134 1144.607596084665,312.36798409708285 1144.607596084665,312.36798409708285 C1144.607596084665,312.36798409708285 1268.39348475654,312.36798409708285 1268.39348475654,312.36798409708285 C1279.41399256904,316.32981471308017 1287.2913729401337,327.2190168310001 1287.2913729401337,340.1007421422794 C1287.2913729401337,356.3457792211368 1271.9999911041962,369.420589249213 1256.4384676666962,369.420589249213 C1223.654959365915,369.7140691686466 1190.817343399118,369.420589249213 1158.0608431549774,369.420589249213 C1158.0608431549774,369.420589249213 1102.7766939850555,396.1030843664005 1102.7766939850555,396.1030843664005 C1102.7766939850555,396.1030843664005 1234.27776210029,395.94858912714267 1234.27776210029,395.94858912714267 C1246.0319735260712,395.9254339147403 1265.19621913154,394.9485280919864 1276.1973787995087,390.8785818029239 C1307.8186556549774,379.1822851110294 1327.9367586823212,350.8123548436954 1310.2397982331024,313.76193122156405 C1305.9226595612274,305.48692483604395 1295.0836092682587,294.1922309804752 1287.8550936432587,290.43503169306064 C1280.4024569245087,286.5620534826114 1274.216482803415,285.7820012975528 1264.81780116279,285.5850885320499 C1264.81780116279,285.5850885320499 1264.4548250885712,285.33797435053134 1264.4548250885712,285.33797435053134 C1264.4548250885712,285.33797435053134 1200.9651705475555,285.33797435053134 1200.9651705475555,285.33797435053134 C1200.9651705475555,285.33797435053134 1144.607596084665,285.33797435053134 1144.607596084665,285.33797435053134 C1144.607596084665,285.33797435053134 1144.607596084665,285.33797435053134 1144.607596084665,285.33797435053134 Z" fill="#000000"/>
								</g>
							</g>
							<g>
								<g>
									<path d="M215.33135096747742,215.1294286657169 C215.33135096747742,215.1294286657169 215.33135096747742,247.20635585077548 215.33135096747742,247.20635585077548 C215.33135096747742,247.20635585077548 1048.8750521393524,250.06377391107821 1048.8750521393524,250.06377391107821 C1064.1277376862274,230.32414607294345 1074.526541397165,217.10648707636142 1100.4251620026337,215.1294286657169 C1100.4251620026337,215.1294286657169 215.33135096747742,215.1294286657169 215.33135096747742,215.1294286657169 C215.33135096747742,215.1294286657169 215.33135096747742,215.1294286657169 215.33135096747742,215.1294286657169 Z" fill="#000000"/>
								</g>
							</g>
							<g>
								<g>
									<path d="M-22.61383946221008,157.85673121698642 C-22.61383946221008,157.85673121698642 -51.16138584892883,186.40040950067782 -51.16138584892883,186.40040950067782 C-51.16138584892883,186.40040950067782 67.96373622138367,305.5255179233893 67.96373622138367,305.5255179233893 C67.96373622138367,305.5255179233893 -51.16138584892883,424.6506536413028 -51.16138584892883,424.6506536413028 C-51.16138584892883,424.6506536413028 -22.61383946221008,453.1981618810489 -22.61383946221008,453.1981618810489 C-22.61383946221008,453.1981618810489 96.51128260810242,334.07308940180087 96.51128260810242,334.07308940180087 C96.51128260810242,334.07308940180087 187.45567958075867,425.013606827338 187.45567958075867,425.013606827338 C187.45567958075867,425.013606827338 272.7237765045868,453.19433192499423 272.7237765045868,453.19433192499423 C272.7237765045868,453.19433192499423 125.05107752997742,305.52162915431404 125.05107752997742,305.52162915431404 C125.05107752997742,305.52162915431404 272.7237765045868,157.85284022577548 272.7237765045868,157.85284022577548 C272.7237765045868,157.85284022577548 187.45567958075867,186.02971247919345 187.45567958075867,186.02971247919345 C187.45567958075867,186.02971247919345 96.50737635810242,276.9779451299503 96.50737635810242,276.9779451299503 C96.50737635810242,276.9779451299503 -22.61383946221008,157.85673121698642 -22.61383946221008,157.85673121698642 C-22.61383946221008,157.85673121698642 -22.61383946221008,157.85673121698642 -22.61383946221008,157.85673121698642 Z" fill="#000000"/>
								</g>
							</g>
							<g>
								<g>
									<path d="M91.45665614325867,274.7421987462833 C91.05504481513367,274.7267606664493 90.66118495185242,274.87347392328525 90.50676600653992,275.1669576574161 C90.22484461982117,275.68823031671786 90.56468836982117,277.10539035089755 91.17864100653992,277.9665182042911 C91.68059413153992,278.6731546331241 91.98570887763367,278.71563700922275 91.99724452216492,278.0746381688907 C92.03356044013367,277.7229993749454 92.13854090888367,277.3818471837833 92.30620448310242,277.07062892206454 C92.70775477607117,276.36399249323154 92.70006434638367,275.48359851129794 92.29070155341492,275.0704458165958 C92.06163661200867,274.86363391168857 91.76524989325867,274.7469709325626 91.45665614325867,274.7421987462833M101.11797206122742,262.5130193639591 C100.91582362372742,262.7417524267032 100.70989100653992,262.9670637060001 100.50011317450867,263.18878154047275 C99.77806727607117,263.94562129267 99.18724696357117,264.66775111444736 99.18724696357117,264.7990262914493 C99.18724696357117,264.93030146845126 99.49999110419617,265.28553752191806 99.88231532294617,265.5944593358829 C101.95586268622742,267.29349498041415 104.23412196357117,269.8266179967716 104.86351649482117,271.13560084589267 C107.22289149482117,276.0396325994327 105.10295741278992,280.3103845525577 103.50047938544617,280.6385744024112 C104.32683436591492,277.0976732183292 101.72423426825867,274.7267606664493 99.69695155341492,272.2592771459415 C99.56566493232117,272.2167966771915 99.33782069403992,272.6377256322696 99.18724696357117,273.1937597204044 C98.41496913153992,276.02802638300204 96.72753016669617,278.0591409612491 94.63463465888367,278.6654355932071 C93.90868251044617,278.87778643854404 93.15184657294617,278.96274928339267 92.71159999091492,278.87778643854404 C92.32549159247742,278.80825976618075 92.00884120185242,278.80054072626376 91.98955409247742,278.8546312261417 C91.98955409247742,278.8546312261417 91.98955409247742,278.85845927484775 91.98955409247742,278.85845927484775 C91.98955409247742,279.2639520574405 95.80461756903992,283.63504771478915 96.15599696357117,283.63504771478915 C96.21007411200867,283.63504771478915 96.81633631903992,284.06752566583896 97.49980799872742,284.5926855016544 C98.46514002997742,285.3366582799747 99.55925624091492,286.04973773248935 100.78203456122742,286.7319219518497 C100.78203456122742,286.7319219518497 81.68340174872742,286.7319219518497 81.68340174872742,286.7319219518497 C79.48235194403992,286.7319219518497 77.70610682685242,284.9634149480655 77.70610682685242,282.76237277277255 C77.70610682685242,282.76237277277255 77.70610682685242,266.4864576268985 77.70610682685242,266.4864576268985 C77.70610682685242,264.28541545160556 79.48235194403992,262.5130193639591 81.68340174872742,262.5130193639591 C81.68340174872742,262.5130193639591 101.11797206122742,262.5130193639591 101.11797206122742,262.5130193639591 C101.11797206122742,262.5130193639591 101.11797206122742,262.5130193639591 101.11797206122742,262.5130193639591 Z" fill="url('#12898933040863188412')"/>
								</g>
							</g>
							<g>
								<g>
									<path d="M85.85759608466492,248.1021840978458 C85.52550379950867,248.02494029291415 84.51378504950867,248.3725126195743 82.34752528388367,249.15250758417392 C76.24651210028992,251.35348872431064 71.88304774482117,255.9988019872501 69.40013758857117,262.93778208978915 C68.35759608466492,265.8531797338321 67.43083827216492,266.8918912816837 63.09447352607117,270.01192454584384 C37.59740321357117,303.19708804376864 66.37279383857117,341.7766225744083 63.58489100653992,339.0929029393985 C63.58489100653992,339.0929029393985 62.20635096747742,336.7529237676456 62.43804042060242,333.4745729375675 C63.34160487372742,320.55419615991855 63.19872157294617,284.89777735956454 98.77409999091492,299.3472063947513 C110.54369227607117,304.1276821304157 113.14244715888367,302.1158922124698 116.09258143622742,299.1734493184879 C118.42876307685242,296.83730105646396 118.25499598700867,295.91053656824374 115.19286219794617,294.32739428766513 C110.28887049872742,291.79810408838534 105.99492518622742,287.3227193761661 103.72441737372742,282.38009433038974 C102.02153651435242,278.6731546331241 100.43450038153992,275.7770822454288 98.85899989325867,273.5683191228702 C97.02867762763367,270.9927747655704 95.21385829169617,269.3323324132755 93.24834315497742,268.3669736791446 C93.24834315497742,268.3669736791446 92.13243739325867,267.7877843786075 92.13243739325867,267.7877843786075 C90.45653407294617,264.79513911493564 90.89678065497742,261.146117966254 93.68858973700867,255.75551966913486 C94.07469813544617,255.09136180170321 94.26781336982117,254.7245214391544 93.99364344794617,254.65888575800204 C93.66155116278992,254.5816991735294 92.64983241278992,254.92921427973056 90.48357264716492,255.7092054296329 C87.86009852607117,256.63390712030673 85.46227137763367,258.1039235997989 83.44805018622742,260.02244166620517 C82.47496669013367,257.2576444555118 83.12370936591492,253.88661174066806 85.55254237372742,249.20270518549228 C85.93865077216492,248.53466395624423 86.13176600653992,248.17171077020907 85.85759608466492,248.1021840978458" fill="#ff6600"/>
								</g>
							</g>
							<g>
								<g>
									<path d="M168.63121669013367,350.0014875341251 C171.68944422919617,352.00939158685946 175.80962245185242,351.13671473749423 178.72112147528992,350.46483973749423 C184.74107997138367,349.0747259069278 189.89607875068054,349.26780680902743 194.69969813544617,351.06335810907626 C198.66539637763367,352.5422704625919 202.54613368232117,355.28390864618564 204.49617640693054,357.97529200800204 C205.74339930732117,359.7052648473575 206.67784754950867,362.84844950922275 206.13341395575867,363.4778402257755 C205.79747645575867,363.86400965936923 205.54259364325867,363.7867620397403 204.35713832099304,362.9372442174747 C203.26824061591492,362.1610792089298 202.4496065827118,361.92557505853915 202.4380099030243,362.3850973058536 C202.4380099030243,362.51637248285556 203.84358851630554,363.9914548803165 205.56578700263367,365.6557271886661 C207.29183070380554,367.32383326776767 209.19551722724304,369.23522166498446 209.7901827545868,369.91098384149814 C212.9758516998993,373.4867055822208 214.89885585028992,378.1821630407169 215.47420375068054,383.7851140905216 C215.66728846747742,385.68878535517 215.64021937568054,386.6078298497989 215.37767665107117,386.6966207433536 C215.01470057685242,386.82406977899814 214.79845301825867,386.4340703893497 214.44319789130554,385.0554998327091 C213.08013026435242,379.68811396845126 209.80562464911804,374.8575017858341 205.52330653388367,371.8996160436466 C201.1858126373993,368.85117701776767 196.0719210358368,367.09698848017 190.7765108795868,366.84115580805087 C185.76433436591492,366.57088450678134 182.64818446357117,367.161685745795 172.28795497138367,370.3473546911075 C168.19487635810242,371.60619715936923 165.05937831122742,372.4711492467716 163.71556727607117,372.7066533971622 C159.60704676825867,373.44033412225986 153.68358485419617,373.3669774938419 151.50578944403992,372.56377009638095 C148.34850184638367,371.44163111933017 145.97856776435242,368.7909620214298 145.21550624091492,365.52828196771884 C144.92589442450867,364.3119237829044 144.94133631903992,361.70544795282626 145.24639002997742,360.30760936029696 C145.92601649482117,357.16053752191806 143.81761805732117,354.3841894079044 142.04137294013367,356.07934169061923 C141.27684657294617,356.8130224157169 140.97179286200867,358.0872991491153 141.20732752997742,359.5700986791446 C141.41588465888367,360.8598173070743 142.14952723700867,363.05308131464267 142.71715419013367,364.06864146478915 C143.24614588935242,365.0070112157657 143.18822352607117,365.54761103876376 142.56267420966492,365.60552958734775 C142.16106288153992,365.6441228795841 141.93327967841492,365.42788295038486 140.75554530341492,363.8871648717716 C137.90581385810242,360.15317897089267 135.73955409247742,356.24155024774814 134.60430018622742,352.76622752435946 C133.99803797919617,350.92436579950595 133.40721766669617,348.2985608983829 132.92070643622742,345.3445699621036 C131.78929774482117,344.564574997504 133.64665858466492,327.00277690180087 168.63121669013367,350.0014875341251" fill="#ff6600"/>
								</g>
							</g>
							<g>
								<g>
									<path d="M67.96758143622742,305.5255179233893 C67.96758143622742,305.5255179233893 -51.16523106377258,424.6467626500919 -51.16523106377258,424.6467626500919 C-51.16523106377258,424.6467626500919 -22.61383946221008,453.1981618810489 -22.61383946221008,453.1981618810489 C-22.61383946221008,453.1981618810489 96.51128260810242,334.07308940180087 96.51128260810242,334.07308940180087 C96.51128260810242,334.07308940180087 187.45567958075867,425.013606827338 187.45567958075867,425.013606827338 C187.45567958075867,425.013606827338 272.72762171943054,453.19433192499423 272.72762171943054,453.19433192499423 C272.72762171943054,453.19433192499423 125.05498377997742,305.52162915431404 125.05498377997742,305.52162915431404 C125.05498377997742,305.52162915431404 67.96758143622742,305.5255179233893 67.96758143622742,305.5255179233893 C67.96758143622742,305.5255179233893 67.96758143622742,305.5255179233893 67.96758143622742,305.5255179233893 Z" fill="#000000"/>
								</g>
							</g>
							<g>
								<g>
									<path d="M215.32747523505554,215.1294286657169 C215.32747523505554,215.1294286657169 215.32747523505554,246.8588407445743 215.32747523505554,246.8588407445743 C215.32747523505554,246.8588407445743 361.49031703193054,246.8588407445743 361.49031703193054,246.8588407445743 C361.49031703193054,246.8588407445743 396.23546473700867,215.1294286657169 396.23546473700867,215.1294286657169 C396.23546473700867,215.1294286657169 215.32747523505554,215.1294286657169 215.32747523505554,215.1294286657169 C215.32747523505554,215.1294286657169 215.32747523505554,215.1294286657169 215.32747523505554,215.1294286657169 Z" fill="#000000"/>
								</g>
							</g>
							<g>
								<g>
									<path d="M215.32747523505554,215.12556819208407 C215.32747523505554,215.12556819208407 242.3613497467743,215.12556819208407 242.3613497467743,215.12556819208407 C242.3613497467743,215.12556819208407 242.3613497467743,396.0335576940372 242.3613497467743,396.0335576940372 C242.3613497467743,396.0335576940372 215.32747523505554,396.0335576940372 215.32747523505554,396.0335576940372 C215.32747523505554,396.0335576940372 215.32747523505554,215.12556819208407 215.32747523505554,215.12556819208407 C215.32747523505554,215.12556819208407 215.32747523505554,215.12556819208407 215.32747523505554,215.12556819208407 Z" fill="#000000"/>
								</g>
							</g>
							<g>
								<g>
									<path d="M215.32747523505554,368.99971751459384 C215.32747523505554,368.99971751459384 215.32747523505554,396.0335576940372 215.32747523505554,396.0335576940372 C215.32747523505554,396.0335576940372 361.49031703193054,396.0335576940372 361.49031703193054,396.0335576940372 C361.49031703193054,396.0335576940372 396.23546473700867,369.0035474706485 396.23546473700867,369.0035474706485 C396.23546473700867,369.0035474706485 215.32747523505554,368.99971751459384 215.32747523505554,368.99971751459384 C215.32747523505554,368.99971751459384 215.32747523505554,368.99971751459384 215.32747523505554,368.99971751459384 Z" fill="#000000"/>
								</g>
							</g>
							<g>
								<g>
									<path d="M242.36519496161804,396.0335576940372 C242.36519496161804,396.0335576940372 215.32747523505554,396.0335576940372 215.32747523505554,396.0335576940372 C215.32747523505554,396.0335576940372 215.32747523505554,249.8707502294376 215.32747523505554,249.8707502294376 C215.32747523505554,249.8707502294376 242.3613497467743,215.1294286657169 242.3613497467743,215.1294286657169 C242.3613497467743,215.1294286657169 242.36519496161804,396.0335576940372 242.36519496161804,396.0335576940372 C242.36519496161804,396.0335576940372 242.36519496161804,396.0335576940372 242.36519496161804,396.0335576940372 Z" fill="#000000"/>
								</g>
							</g>
							<g>
								<g>
									<path d="M215.32747523505554,287.28795603998446 C215.32747523505554,287.28795603998446 215.32747523505554,314.3218543935611 215.32747523505554,314.3218543935611 C215.32747523505554,314.3218543935611 320.6363741608368,314.3218543935611 320.6363741608368,314.3218543935611 C320.6363741608368,314.3218543935611 355.37767665107117,287.29184512384677 355.37767665107117,287.29184512384677 C355.37767665107117,287.29184512384677 215.32747523505554,287.28795603998446 215.32747523505554,287.28795603998446 C215.32747523505554,287.28795603998446 215.32747523505554,287.28795603998446 215.32747523505554,287.28795603998446 Z" fill="#000000"/>
								</g>
							</g>
							<g>
								<g>
									<path d="M493.08785121161804,396.0335576940372 C493.08785121161804,396.0335576940372 463.980414077829,396.2073171544864 463.980414077829,396.2073171544864 C463.980414077829,396.2073171544864 467.45567958075867,246.8588407445743 467.45567958075867,246.8588407445743 C467.45567958075867,246.8588407445743 497.48599879462586,233.1893423009708 497.48599879462586,233.1893423009708 C497.48599879462586,233.1893423009708 493.08785121161804,396.0335576940372 493.08785121161804,396.0335576940372 C493.08785121161804,396.0335576940372 493.08785121161804,396.0335576940372 493.08785121161804,396.0335576940372 Z" fill="#000000"/>
								</g>
							</g>
							<g>
								<g>
									<path d="M491.6436526032196,391.1334112096622 C491.6436526032196,391.1334112096622 463.980414077829,396.2073171544864 463.980414077829,396.2073171544864 C463.980414077829,396.2073171544864 369.25951258857117,241.40649012811923 369.25951258857117,241.40649012811923 C369.25951258857117,241.40649012811923 397.66036097724304,236.13561610468173 397.66036097724304,236.13561610468173 C397.66036097724304,236.13561610468173 491.6436526032196,391.1334112096622 491.6436526032196,391.1334112096622 C491.6436526032196,391.1334112096622 491.6436526032196,391.1334112096622 491.6436526032196,391.1334112096622 Z" fill="#000000"/>
								</g>
							</g>
							<g>
								<g>
									<path d="M397.66036097724304,236.50246028192782 C397.66036097724304,236.50246028192782 368.4756380768524,236.72641352899814 368.4756380768524,236.72641352899814 C368.4756380768524,236.72641352899814 372.02815882880554,368.99971751459384 372.02815882880554,368.99971751459384 C372.02815882880554,368.99971751459384 402.0584933014618,396.0335576940372 402.0584933014618,396.0335576940372 C402.0584933014618,396.0335576940372 397.66036097724304,236.50246028192782 397.66036097724304,236.50246028192782 C397.66036097724304,236.50246028192782 397.66036097724304,236.50246028192782 397.66036097724304,236.50246028192782 Z" fill="#000000"/>
								</g>
							</g>
							<g>
								<g>
									<path d="M607.1776873322235,215.12556819208407 C607.1776873322235,215.12556819208407 576.9696642609345,215.12556819208407 576.9696642609345,215.12556819208407 C576.9696642609345,215.12556819208407 576.9696642609345,376.6800954747989 576.9696642609345,376.6800954747989 C576.9696642609345,376.6800954747989 607.1776873322235,395.8829534459903 607.1776873322235,395.8829534459903 C607.1776873322235,395.8829534459903 607.1776873322235,215.12556819208407 607.1776873322235,215.12556819208407 C607.1776873322235,215.12556819208407 607.1776873322235,215.12556819208407 607.1776873322235,215.12556819208407 Z" fill="#000000"/>
								</g>
							</g>
							<g>
								<g>
									<path d="M521.3342196198212,369.1773031164005 C521.3342196198212,369.1773031164005 491.6398226471649,396.2073171544864 491.6398226471649,396.2073171544864 C491.6398226471649,396.2073171544864 692.5037023277985,396.2073171544864 692.5037023277985,396.2073171544864 C692.5037023277985,396.2073171544864 662.8131281586395,369.1773031164005 662.8131281586395,369.1773031164005 C662.8131281586395,369.1773031164005 537.9190584870087,369.1773031164005 537.9190584870087,369.1773031164005 C537.9190584870087,369.1773031164005 521.3342196198212,369.1773031164005 521.3342196198212,369.1773031164005 C521.3342196198212,369.1773031164005 521.3342196198212,369.1773031164005 521.3342196198212,369.1773031164005 Z" fill="#000000"/>
								</g>
							</g>
							<g>
								<g>
									<path d="M771.1301333161102,229.45918635614657 C771.1301333161102,229.45918635614657 740.4742037506805,215.12556819208407 740.4742037506805,215.12556819208407 C740.4742037506805,215.12556819208407 677.2432886811005,353.3415868688419 677.2432886811005,353.3415868688419 C677.2432886811005,353.3415868688419 694.9827334137665,396.2073171544864 694.9827334137665,396.2073171544864 C694.9827334137665,396.2073171544864 771.1301333161102,229.45918635614657 771.1301333161102,229.45918635614657 C771.1301333161102,229.45918635614657 771.1301333161102,229.45918635614657 771.1301333161102,229.45918635614657 ZM771.1301333161102,229.45918635614657 C771.1301333161102,229.45918635614657 801.7821184845673,215.12556819208407 801.7821184845673,215.12556819208407 C801.7821184845673,215.12556819208407 865.0169283600555,353.3415868688419 865.0169283600555,353.3415868688419 C865.0169283600555,353.3415868688419 847.2736574860321,396.2073171544864 847.2736574860321,396.2073171544864 C847.2736574860321,396.2073171544864 771.1301333161102,229.45918635614657 771.1301333161102,229.45918635614657 C771.1301333161102,229.45918635614657 771.1301333161102,229.45918635614657 771.1301333161102,229.45918635614657 Z" fill="#000000"/>
								</g>
							</g>
							<g>
								<g>
									<path d="M724.0090948792206,294.63242701776767 C724.0090948792206,294.63242701776767 724.0090948792206,321.666267197211 724.0090948792206,321.666267197211 C724.0090948792206,321.666267197211 902.4650027008759,321.666267197211 902.4650027008759,321.666267197211 C902.4650027008759,321.666267197211 961.3402621002899,294.63625697382236 961.3402621002899,294.63625697382236 C961.3402621002899,294.63625697382236 724.0090948792206,294.63242701776767 724.0090948792206,294.63242701776767 C724.0090948792206,294.63242701776767 724.0090948792206,294.63242701776767 724.0090948792206,294.63242701776767 Z" fill="#000000"/>
								</g>
							</g>
							<g>
								<g>
									<path d="M1100.4251620026337,215.1294286657169 C1100.4251620026337,215.1294286657169 1166.057791397165,250.5580594945743 1166.057791397165,250.5580594945743 C1166.057791397165,250.5580594945743 1292.87883631904,250.9982564855411 1292.87883631904,250.9982564855411 C1292.87883631904,250.9982564855411 1362.4038607331024,215.12556819208407 1362.4038607331024,215.12556819208407 C1362.4038607331024,215.12556819208407 1100.4251620026337,215.1294286657169 1100.4251620026337,215.1294286657169 C1100.4251620026337,215.1294286657169 1100.4251620026337,215.1294286657169 1100.4251620026337,215.1294286657169 Z" fill="#000000"/>
								</g>
							</g>
							<g>
								<g>
									<path d="M1191.7247225495087,305.6684007305696 C1191.7247225495087,355.6739080358341 1150.8476473541962,396.2073171544864 1100.4251620026337,396.2073171544864 C1050.0025545807587,396.2073171544864 1009.125448867868,355.67001704462314 1009.125448867868,305.6684007305696 C1009.125448867868,255.6667249608829 1050.0025545807587,215.1294286657169 1100.4251620026337,215.1294286657169 C1150.8476473541962,215.1294286657169 1191.7247225495087,255.66289500482821 1191.7247225495087,305.6684007305696" fill="#000000"/>
								</g>
							</g>
							<g>
								<g>
									<path d="M537.9190584870087,215.1294286657169 C537.9190584870087,215.1294286657169 537.9190584870087,248.33774928339267 537.9190584870087,248.33774928339267 C537.9190584870087,248.33774928339267 662.8131281586395,248.33774928339267 662.8131281586395,248.33774928339267 C662.8131281586395,248.33774928339267 692.507531807016,215.1294286657169 692.507531807016,215.1294286657169 C692.507531807016,215.1294286657169 537.9190584870087,215.1294286657169 537.9190584870087,215.1294286657169 C537.9190584870087,215.1294286657169 537.9190584870087,215.1294286657169 537.9190584870087,215.1294286657169 Z" fill="#000000"/>
								</g>
							</g>
							<g>
								<g>
									<path d="M646.232180282663,215.1294286657169 C646.232180282663,215.1294286657169 646.232180282663,248.27211360224032 646.232180282663,248.27211360224032 C646.232180282663,248.27211360224032 521.3342196198212,248.27211360224032 521.3342196198212,248.27211360224032 C521.3342196198212,248.27211360224032 491.6436526032196,215.12556819208407 491.6436526032196,215.12556819208407 C491.6436526032196,215.12556819208407 646.232180282663,215.1294286657169 646.232180282663,215.1294286657169 C646.232180282663,215.1294286657169 646.232180282663,215.1294286657169 646.232180282663,215.1294286657169 Z" fill="#000000"/>
								</g>
							</g>
							<g>
								<g>
									<g>
										<path d="M640.2044703217255,215.1294286657169 C640.2044703217255,215.1294286657169 633.3967653961884,224.66716365106845 633.3967653961884,224.66716365106845 C633.3967653961884,224.66716365106845 633.3388506623016,224.74824122675204 633.3388506623016,224.74824122675204 C633.3388506623016,224.74824122675204 616.1361681671845,248.57714442499423 616.1361681671845,248.57714442499423 C616.1361681671845,248.57714442499423 665.7323557587372,248.74707392938876 665.7323557587372,248.74707392938876 C665.7323557587372,248.74707392938876 692.507531807016,215.1294286657169 692.507531807016,215.1294286657169 C692.507531807016,215.1294286657169 640.2044703217255,215.1294286657169 640.2044703217255,215.1294286657169 C640.2044703217255,215.1294286657169 640.2044703217255,215.1294286657169 640.2044703217255,215.1294286657169 Z" fill="url('#2831439601049259989')"/>
									</g>
								</g>
								<g>
									<g>
										<path d="M607.1815172882782,260.98779658563876 C607.1815172882782,260.98779658563876 576.9696642609345,302.83796600588107 576.9696642609345,302.83796600588107 C576.9696642609345,302.83796600588107 576.9696642609345,369.03058985956454 576.9696642609345,369.03058985956454 C576.9696642609345,369.03058985956454 607.1815172882782,328.11101702936435 607.1815172882782,328.11101702936435 C607.1815172882782,328.11101702936435 607.1815172882782,260.98779658563876 607.1815172882782,260.98779658563876 C607.1815172882782,260.98779658563876 607.1815172882782,260.98779658563876 607.1815172882782,260.98779658563876 Z" fill="url('#4811808403392379451')"/>
									</g>
								</g>
								<g>
									<g>
										<path d="M529.0763460846649,369.1773031164005 C529.0763460846649,369.1773031164005 509.56456629950867,396.2073171544864 509.56456629950867,396.2073171544864 C509.56456629950867,396.2073171544864 556.9018465729462,396.2073171544864 556.9018465729462,396.2073171544864 C556.9018465729462,396.2073171544864 576.8615481110321,369.1773031164005 576.8615481110321,369.1773031164005 C576.8615481110321,369.1773031164005 537.9151674957977,369.1773031164005 537.9151674957977,369.1773031164005 C537.9151674957977,369.1773031164005 529.0763460846649,369.1773031164005 529.0763460846649,369.1773031164005 C529.0763460846649,369.1773031164005 529.0763460846649,369.1773031164005 529.0763460846649,369.1773031164005 Z" fill="url('#12184862304243424655')"/>
									</g>
								</g>
							</g>
							<g>
								<g>
									<path d="M611.6801134796845,215.1294286657169 C611.6801134796845,215.1294286657169 610.4907366486298,216.78212336786532 610.4907366486298,216.78212336786532 C610.4907366486298,216.78212336786532 606.9575564118134,221.69387416132236 606.9575564118134,221.69387416132236 C606.9575564118134,221.69387416132236 587.6851717682587,248.48063258417392 587.6851717682587,248.48063258417392 C587.6851717682587,248.48063258417392 608.320631668161,248.55010203607821 608.320631668161,248.55010203607821 C608.320631668161,248.55010203607821 627.504225418161,221.94488124140048 627.504225418161,221.94488124140048 C627.504225418161,221.94488124140048 632.4970461579071,215.1294286657169 632.4970461579071,215.1294286657169 C632.4970461579071,215.1294286657169 611.6801134796845,215.1294286657169 611.6801134796845,215.1294286657169 C611.6801134796845,215.1294286657169 611.6801134796845,215.1294286657169 611.6801134796845,215.1294286657169 Z" fill="url('#10485928649328247470')"/>
								</g>
							</g>
							<g>
								<g>
									<path d="M607.1815172882782,221.38109950311923 C607.1815172882782,221.38109950311923 606.9575564118134,221.69002131708407 606.9575564118134,221.69002131708407 C606.9575564118134,221.69002131708407 576.9696642609345,263.37414912470126 576.9696642609345,263.37414912470126 C576.9696642609345,263.37414912470126 576.9696642609345,292.0259502340152 576.9696642609345,292.0259502340152 C576.9696642609345,292.0259502340152 607.1815172882782,250.1333005834415 607.1815172882782,250.1333005834415 C607.1815172882782,250.1333005834415 607.1815172882782,221.38109950311923 607.1815172882782,221.38109950311923 C607.1815172882782,221.38109950311923 607.1815172882782,221.38109950311923 607.1815172882782,221.38109950311923 Z" fill="url('#2761526438275225325')"/>
								</g>
							</g>
							<g>
								<g>
									<path d="M1117.3072420807587,215.1294286657169 C1117.3072420807587,215.1294286657169 1116.1180025788055,216.78212336786532 1116.1180025788055,216.78212336786532 C1116.1180025788055,216.78212336786532 1112.5847384186493,221.69387416132236 1112.5847384186493,221.69387416132236 C1112.5847384186493,221.69387416132236 1020.5708224030243,349.59216670282626 1020.5708224030243,349.59216670282626 C1023.2415682526337,354.354671280463 1026.3369051666962,358.8664091039493 1029.8188997956024,363.0724065709903 C1029.8188997956024,363.0724065709903 1127.4435030670868,229.71791438349032 1127.4435030670868,229.71791438349032 C1127.4435030670868,229.71791438349032 1127.4473787995087,229.71791438349032 1127.4473787995087,229.71791438349032 C1127.4473787995087,229.71791438349032 1138.1281954498993,215.1294286657169 1138.1281954498993,215.1294286657169 C1138.1281954498993,215.1294286657169 1117.3072420807587,215.1294286657169 1117.3072420807587,215.1294286657169 C1117.3072420807587,215.1294286657169 1117.3072420807587,215.1294286657169 1117.3072420807587,215.1294286657169 ZM1198.2429110260712,215.1294286657169 C1198.2429110260712,215.1294286657169 1148.6698214264618,215.14489344843173 1148.6698214264618,215.14489344843173 C1148.6698214264618,215.14489344843173 1137.34807460029,231.0153463292911 1137.34807460029,231.0153463292911 C1137.34807460029,231.0153463292911 1136.0429903717743,232.83794001825595 1136.0429903717743,232.83794001825595 C1136.0429903717743,232.83794001825595 1037.3062044831024,371.08486537225986 1037.3062044831024,371.08486537225986 C1047.1783663483368,380.4560888219669 1059.0167147370087,387.50707606561923 1071.958670303415,391.7242086339786 C1071.958670303415,391.7242086339786 1172.8965059967743,250.58893565424228 1172.8965059967743,250.58893565424228 C1172.8965059967743,250.58893565424228 1198.2429110260712,215.1294286657169 1198.2429110260712,215.1294286657169 C1198.2429110260712,215.1294286657169 1198.2429110260712,215.1294286657169 1198.2429110260712,215.1294286657169 Z" fill="url('#14327978208443143957')"/>
								</g>
							</g>
							<g>
								<g>
									<path d="M965.506796524118,215.14489344843173 C965.506796524118,215.14489344843173 915.9337069245087,215.16033534296298 915.9337069245087,215.16033534296298 C915.9337069245087,215.16033534296298 891.3943850250946,249.5270650792911 891.3943850250946,249.5270650792911 C891.3943850250946,249.5270650792911 940.3881594391571,249.6931035924747 940.3881594391571,249.6931035924747 C940.3881594391571,249.6931035924747 965.506796524118,215.14489344843173 965.506796524118,215.14489344843173 C965.506796524118,215.14489344843173 965.506796524118,215.14489344843173 965.506796524118,215.14489344843173 Z" fill="url('#11943352059648628890')"/>
								</g>
							</g>
							<g>
								<g>
									<path d="M859.178412124704,294.63625697382236 C859.178412124704,294.63625697382236 839.8712679596649,321.666267197211 839.8712679596649,321.666267197211 C839.8712679596649,321.666267197211 888.0541750641571,321.666267197211 888.0541750641571,321.666267197211 C888.0541750641571,321.666267197211 907.7088381500946,294.63625697382236 907.7088381500946,294.63625697382236 C907.7088381500946,294.63625697382236 859.178412124704,294.63625697382236 859.178412124704,294.63625697382236 C859.178412124704,294.63625697382236 859.178412124704,294.63625697382236 859.178412124704,294.63625697382236 Z" fill="url('#16356406023306745876')"/>
								</g>
							</g>
							<g>
								<g>
									<path d="M846.3662173004852,312.5765045095279 C846.3662173004852,312.5765045095279 823.6262194367157,344.4178655553653 823.6262194367157,344.4178655553653 C823.6262194367157,344.4178655553653 842.0993563385712,384.87402705438876 842.0993563385712,384.87402705438876 C842.0993563385712,384.87402705438876 865.0092074127899,353.36474208124423 865.0092074127899,353.36474208124423 C865.0092074127899,353.36474208124423 865.0207583161102,353.3415868688419 865.0207583161102,353.3415868688419 C865.0207583161102,353.3415868688419 846.3662173004852,312.5765045095279 846.3662173004852,312.5765045095279 C846.3662173004852,312.5765045095279 846.3662173004852,312.5765045095279 846.3662173004852,312.5765045095279 Z" fill="url('#8211710716557487559')"/>
								</g>
							</g>
							<g>
								<g>
									<path d="M884.571249649118,215.1294286657169 C884.571249649118,215.1294286657169 883.3818728180634,216.78212336786532 883.3818728180634,216.78212336786532 C883.3818728180634,216.78212336786532 879.8486849518524,221.69387416132236 879.8486849518524,221.69387416132236 C879.8486849518524,221.69387416132236 859.9043795319305,249.4189451146915 859.9043795319305,249.4189451146915 C859.9043795319305,249.4189451146915 880.2386843415009,249.4845846105411 880.2386843415009,249.4845846105411 C880.2386843415009,249.4845846105411 894.7074953766571,229.71791438349032 894.7074953766571,229.71791438349032 C894.7074953766571,229.71791438349032 894.7112795563446,229.71791438349032 894.7112795563446,229.71791438349032 C894.7112795563446,229.71791438349032 905.3920656891571,215.1294286657169 905.3920656891571,215.1294286657169 C905.3920656891571,215.1294286657169 884.571249649118,215.1294286657169 884.571249649118,215.1294286657169 C884.571249649118,215.1294286657169 884.571249649118,215.1294286657169 884.571249649118,215.1294286657169 Z" fill="url('#11871642717128305364')"/>
								</g>
							</g>
							<g>
								<g>
									<path d="M827.3718172760712,294.63625697382236 C827.3718172760712,294.63625697382236 807.9256731720673,321.666267197211 807.9256731720673,321.666267197211 C807.9256731720673,321.666267197211 827.3950258942352,321.666267197211 827.3950258942352,321.666267197211 C827.3950258942352,321.666267197211 847.1848513336884,294.63625697382236 847.1848513336884,294.63625697382236 C847.1848513336884,294.63625697382236 827.3718172760712,294.63625697382236 827.3718172760712,294.63625697382236 C827.3718172760712,294.63625697382236 827.3718172760712,294.63625697382236 827.3718172760712,294.63625697382236 Z" fill="url('#14619882461012438890')"/>
								</g>
							</g>
							<g>
								<g>
									<path d="M833.9671694489227,285.4731386113956 C833.9671694489227,285.4731386113956 811.1731478424774,317.15228919275546 811.1731478424774,317.15228919275546 C811.1731478424774,317.15228919275546 818.6758791657196,333.5788038183048 818.6758791657196,333.5788038183048 C818.6758791657196,333.5788038183048 841.6282259674774,302.22401193865085 841.6282259674774,302.22401193865085 C841.6282259674774,302.22401193865085 833.9671694489227,285.4731386113956 833.9671694489227,285.4731386113956 C833.9671694489227,285.4731386113956 833.9671694489227,285.4731386113956 833.9671694489227,285.4731386113956 Z" fill="url('#4865392870020751492')"/>
								</g>
							</g>
							<g>
								<g>
									<path d="M280.6435763092743,215.1294286657169 C280.6435763092743,215.1294286657169 279.45421473700867,216.78212336786532 279.45421473700867,216.78212336786532 C279.45421473700867,216.78212336786532 275.92101161200867,221.69387416132236 275.92101161200867,221.69387416132236 C275.92101161200867,221.69387416132236 257.46337001044617,247.34923533685946 257.46337001044617,247.34923533685946 C257.46337001044617,247.34923533685946 277.8208529206024,247.41870478876376 277.8208529206024,247.41870478876376 C277.8208529206024,247.41870478876376 290.7798372956024,229.71791438349032 290.7798372956024,229.71791438349032 C290.7798372956024,229.71791438349032 301.4644076081024,215.1294286657169 301.4644076081024,215.1294286657169 C301.4644076081024,215.1294286657169 280.6435763092743,215.1294286657169 280.6435763092743,215.1294286657169 C280.6435763092743,215.1294286657169 280.6435763092743,215.1294286657169 280.6435763092743,215.1294286657169 Z" fill="url('#12777291884383509975')"/>
								</g>
							</g>
							<g>
								<g>
									<path d="M242.36519496161804,303.2433996606662 C242.36519496161804,303.2433996606662 215.32747523505554,341.10475138910556 215.32747523505554,341.10475138910556 C215.32747523505554,341.10475138910556 215.32747523505554,396.0335576940372 215.32747523505554,396.0335576940372 C215.32747523505554,396.0335576940372 222.53288905341492,396.0335576940372 222.53288905341492,396.0335576940372 C229.1488253327118,387.0261419225528 235.75957362372742,378.01486567743564 242.36519496161804,368.99971751459384 C242.36519496161804,368.99971751459384 242.36519496161804,303.2433996606662 242.36519496161804,303.2433996606662 C242.36519496161804,303.2433996606662 242.36519496161804,303.2433996606662 242.36519496161804,303.2433996606662 Z" fill="url('#8075234171441830091')"/>
								</g>
							</g>
							<g>
								<g>
									<path d="M242.36519496161804,268.33992747553134 C242.36519496161804,268.33992747553134 215.32747523505554,305.91551433094287 215.32747523505554,305.91551433094287 C215.32747523505554,305.91551433094287 215.32747523505554,332.78337458856845 215.32747523505554,332.78337458856845 C215.32747523505554,332.78337458856845 242.36519496161804,295.85261706598544 242.36519496161804,295.85261706598544 C242.36519496161804,295.85261706598544 242.36519496161804,268.33992747553134 242.36519496161804,268.33992747553134 C242.36519496161804,268.33992747553134 242.36519496161804,268.33992747553134 242.36519496161804,268.33992747553134 Z" fill="url('#11084036275787977799')"/>
								</g>
							</g>
							<g>
								<g>
									<path d="M253.75643031318054,287.28795603998446 C253.75643031318054,287.28795603998446 234.45311610419617,314.3218543935611 234.45311610419617,314.3218543935611 C234.45311610419617,314.3218543935611 282.37349574286804,314.3218543935611 282.37349574286804,314.3218543935611 C282.37349574286804,314.3218543935611 302.12084071357117,287.29184512384677 302.12084071357117,287.29184512384677 C302.12084071357117,287.29184512384677 253.75643031318054,287.28795603998446 253.75643031318054,287.28795603998446 C253.75643031318054,287.28795603998446 253.75643031318054,287.28795603998446 253.75643031318054,287.28795603998446 Z" fill="url('#7092956102408765184')"/>
								</g>
							</g>
							<g>
								<g>
									<path d="M228.73436610419617,287.28795603998446 C228.73436610419617,287.28795603998446 215.32747523505554,305.91551433094287 215.32747523505554,305.91551433094287 C215.32747523505554,305.91551433094287 215.32747523505554,314.3218543935611 215.32747523505554,314.3218543935611 C215.32747523505554,314.3218543935611 228.84248988349304,314.3218543935611 228.84248988349304,314.3218543935611 C228.84248988349304,314.3218543935611 248.63231532294617,287.28795603998446 248.63231532294617,287.28795603998446 C248.63231532294617,287.28795603998446 228.73436610419617,287.28795603998446 228.73436610419617,287.28795603998446 C228.73436610419617,287.28795603998446 228.73436610419617,287.28795603998446 228.73436610419617,287.28795603998446 Z" fill="url('#7575135059371736630')"/>
								</g>
							</g>
							<g>
								<g>
									<path d="M354.8447787018524,215.14489344843173 C354.8447787018524,215.14489344843173 305.2717806549774,215.16033534296298 305.2717806549774,215.16033534296298 C305.2717806549774,215.16033534296298 282.2190157623993,247.43803004511142 282.2190157623993,247.43803004511142 C282.2190157623993,247.43803004511142 331.11632411200867,247.604068558295 331.11632411200867,247.604068558295 C339.02196376044617,236.7843358922794 346.9314486237274,225.96590022333407 354.8447787018524,215.14875392206454 C354.8447787018524,215.14875392206454 354.8447787018524,215.14489344843173 354.8447787018524,215.14489344843173 C354.8447787018524,215.14489344843173 354.8447787018524,215.14489344843173 354.8447787018524,215.14489344843173 Z" fill="url('#14089131762298113665')"/>
								</g>
							</g>
						</g>
					</g>
				</g>
			</g>
		</g>
	</g>
</g></g></svg>
