<?xml version="1.0" encoding="UTF-8" standalone="no"?>
<svg
   xml:space="preserve"
   width="366.07401mm"
   height="76.486mm"
   viewBox="0 0 366.07401 76.486"
   version="1.1"
   id="svg31"
   xmlns:xlink="http://www.w3.org/1999/xlink"
   xmlns="http://www.w3.org/2000/svg"
   xmlns:svg="http://www.w3.org/2000/svg"><defs
     id="defs4"><linearGradient
       id="b"><stop
         offset="0"
         style="stop-color:#fff;stop-opacity:1"
         id="stop1" /><stop
         offset="1"
         style="stop-color:#242424;stop-opacity:1"
         id="stop2" /></linearGradient><linearGradient
       id="a"><stop
         offset="0"
         style="stop-color:#fff;stop-opacity:1"
         id="stop3" /><stop
         offset="1"
         style="stop-color:#242424;stop-opacity:1"
         id="stop4" /></linearGradient><linearGradient
       xlink:href="#a"
       id="j"
       x1="306.56"
       x2="341.69601"
       y1="140.24699"
       y2="133.03101"
       gradientUnits="userSpaceOnUse"
       gradientTransform="translate(-14.384,-110.923)" /><linearGradient
       xlink:href="#b"
       id="c"
       x1="180.239"
       x2="206.267"
       y1="148.782"
       y2="125.756"
       gradientUnits="userSpaceOnUse" /><linearGradient
       xlink:href="#b"
       id="e"
       x1="180.239"
       x2="205.743"
       y1="148.782"
       y2="125.756"
       gradientUnits="userSpaceOnUse" /><linearGradient
       xlink:href="#b"
       id="f"
       x1="180.239"
       x2="206.267"
       y1="148.782"
       y2="125.756"
       gradientUnits="userSpaceOnUse" /><linearGradient
       xlink:href="#b"
       id="g"
       x1="180.239"
       x2="206.267"
       y1="148.782"
       y2="125.756"
       gradientUnits="userSpaceOnUse" /><linearGradient
       xlink:href="#b"
       id="d"
       x1="180.239"
       x2="206.267"
       y1="148.782"
       y2="125.756"
       gradientUnits="userSpaceOnUse" /><linearGradient
       xlink:href="#b"
       id="h"
       x1="180.239"
       x2="206.267"
       y1="148.782"
       y2="125.756"
       gradientUnits="userSpaceOnUse" /><linearGradient
       xlink:href="#b"
       id="i"
       x1="180.239"
       x2="206.267"
       y1="148.782"
       y2="125.756"
       gradientUnits="userSpaceOnUse" /></defs><path
     d="m 309.671,33.015 v 7 h 32.057 c 2.854,1.026 4.894,3.846 4.894,7.182 0,4.207 -3.96,7.593 -7.99,7.593 -8.49,0.076 -16.994,0 -25.477,0 l -14.317,6.91 34.055,-0.04 c 3.044,-0.006 8.007,-0.259 10.856,-1.313 8.189,-3.029 13.399,-10.376 8.816,-19.971 -1.118,-2.143 -3.925,-5.068 -5.797,-6.041 -1.93,-1.003 -3.532,-1.205 -5.966,-1.256 l -0.094,-0.064 h -16.442 z"
     style="fill:#000000;fill-opacity:1;stroke-width:5.41384"
     id="path4" /><path
     d="m 69.015,14.833 v 8.307 l 215.864,0.74 c 3.95,-5.112 6.643,-8.535 13.35,-9.047 z"
     style="fill:#000000;fill-opacity:1;fill-rule:evenodd;stroke-width:3.10604;stroke-miterlimit:7;paint-order:stroke markers fill"
     id="path5" /><path
     d="m 7.394,0.001 -7.393,7.392 30.85,30.85 -30.85,30.85 7.393,7.393 30.85,-30.85 23.552,23.551 22.082,7.298 L 45.635,38.242 83.878,0 61.796,7.297 38.243,30.85 Z"
     style="fill:#000000;fill-opacity:1;stroke:none;stroke-width:0.451602;stroke-linecap:round;stroke-linejoin:round;stroke-opacity:1;stop-color:#000000"
     id="path6" /><path
     d="m 39.437,27.104 a 7,7 0 0 1 -0.16,0.175 c -0.187,0.196 -0.34,0.383 -0.34,0.417 0,0.034 0.081,0.126 0.18,0.206 0.537,0.44 1.127,1.096 1.29,1.435 0.611,1.27 0.062,2.376 -0.353,2.461 0.214,-0.917 -0.46,-1.531 -0.985,-2.17 -0.034,-0.011 -0.093,0.098 -0.132,0.242 -0.2,0.734 -0.637,1.26 -1.179,1.417 -0.188,0.055 -0.384,0.077 -0.498,0.055 -0.1,-0.018 -0.182,-0.02 -0.187,-0.006 v 0.001 c 0,0.105 0.988,1.237 1.079,1.237 0.014,0 0.171,0.112 0.348,0.248 q 0.375,0.289 0.85,0.554 h -4.946 c -0.57,0 -1.03,-0.458 -1.03,-1.028 v -4.215 c 0,-0.57 0.46,-1.029 1.03,-1.029 z m -2.502,3.167 c -0.104,-0.004 -0.206,0.034 -0.246,0.11 -0.073,0.135 0.015,0.502 0.174,0.725 0.13,0.183 0.209,0.194 0.212,0.028 a 0.7,0.7 0 0 1 0.08,-0.26 c 0.104,-0.183 0.102,-0.411 -0.004,-0.518 a 0.33,0.33 0 0 0 -0.216,-0.085"
     style="fill:#ec5a36;fill-opacity:1;stroke-width:0.647939"
     id="path7" /><path
     d="m 35.485,23.372 c -0.086,-0.02 -0.348,0.07 -0.909,0.272 -1.58,0.57 -2.71,1.773 -3.353,3.57 -0.27,0.755 -0.51,1.024 -1.633,1.832 -6.603,8.594 0.849,18.585 0.127,17.89 0,0 -0.357,-0.606 -0.297,-1.455 0.234,-3.346 0.197,-12.58 9.41,-8.838 3.048,1.238 3.721,0.717 4.485,-0.045 0.605,-0.605 0.56,-0.845 -0.233,-1.255 -1.27,-0.655 -2.382,-1.814 -2.97,-3.094 -0.441,-0.96 -0.852,-1.71 -1.26,-2.282 C 38.378,29.3 37.908,28.87 37.399,28.62 L 37.11,28.47 c -0.434,-0.775 -0.32,-1.72 0.403,-3.116 0.1,-0.172 0.15,-0.267 0.079,-0.284 -0.086,-0.02 -0.348,0.07 -0.909,0.272 a 5.1,5.1 0 0 0 -1.822,1.117 c -0.252,-0.716 -0.084,-1.589 0.545,-2.802 0.1,-0.173 0.15,-0.267 0.079,-0.285"
     style="fill:#ff6600;fill-opacity:1;stroke-width:0.702981"
     id="path8" /><path
     d="m 56.921,49.761 c 0.792,0.52 1.859,0.294 2.613,0.12 1.559,-0.36 2.894,-0.31 4.138,0.155 1.027,0.383 2.032,1.093 2.537,1.79 0.323,0.448 0.565,1.262 0.424,1.425 -0.087,0.1 -0.153,0.08 -0.46,-0.14 -0.282,-0.201 -0.494,-0.262 -0.497,-0.143 0,0.034 0.364,0.416 0.81,0.847 0.447,0.432 0.94,0.927 1.094,1.102 0.825,0.926 1.323,2.142 1.472,3.593 0.05,0.493 0.043,0.731 -0.025,0.754 -0.094,0.033 -0.15,-0.068 -0.242,-0.425 -0.353,-1.39 -1.201,-2.641 -2.31,-3.407 a 7.25,7.25 0 0 0 -3.819,-1.31 c -1.298,-0.07 -2.105,0.083 -4.788,0.908 -1.06,0.326 -1.872,0.55 -2.22,0.611 -1.064,0.19 -2.598,0.171 -3.162,-0.037 a 2.55,2.55 0 0 1 -1.629,-1.822 c -0.075,-0.315 -0.071,-0.99 0.008,-1.352 0.176,-0.815 -0.37,-1.534 -0.83,-1.095 -0.198,0.19 -0.277,0.52 -0.216,0.904 0.054,0.334 0.244,0.902 0.391,1.165 0.137,0.243 0.122,0.383 -0.04,0.398 -0.104,0.01 -0.163,-0.046 -0.468,-0.445 -0.738,-0.967 -1.299,-1.98 -1.593,-2.88 -0.157,-0.477 -0.31,-1.157 -0.436,-1.922 -0.293,-0.202 0.188,-4.75 9.248,1.206"
     style="fill:#ff6600;fill-opacity:1;stroke-width:0.515578"
     id="path9" /><path
     d="M 30.852,38.243 0,69.092 7.394,76.486 38.244,45.636 61.796,69.187 83.879,76.485 45.636,38.242 Z"
     style="display:inline;fill:#000000;fill-opacity:1;stroke:none;stroke-width:0.451602;stroke-linecap:round;stroke-linejoin:round;stroke-opacity:1;stop-color:#000000"
     id="path10" /><path
     d="m 69.014,14.833 v 8.217 h 37.852 l 8.998,-8.217 z"
     style="fill:#000000;fill-opacity:1;stroke:none;stroke-width:0.263501;stroke-linecap:round;stroke-linejoin:round;stroke-opacity:1;stop-color:#000000"
     id="path11" /><rect
     width="7.0009999"
     height="46.849998"
     x="69.014"
     y="14.831997"
     ry="0"
     style="fill:#000000;fill-opacity:1;fill-rule:evenodd;stroke-width:0.772031;stroke-miterlimit:7;paint-order:stroke markers fill"
     id="rect11" /><path
     d="m 69.014,54.681 v 7.001 h 37.852 l 8.998,-7 z"
     style="fill:#000000;fill-opacity:1;stroke:none;stroke-width:0.243217;stroke-linecap:round;stroke-linejoin:round;stroke-opacity:1;stop-color:#000000"
     id="path12" /><path
     d="M 76.016,61.682 H 69.014 V 23.83 l 7.001,-8.997 z"
     style="fill:#000000;fill-opacity:1;stroke:none;stroke-width:0.243217;stroke-linecap:round;stroke-linejoin:round;stroke-opacity:1;stop-color:#000000"
     id="path13" /><path
     d="m 69.014,33.52 v 7.001 h 27.272 l 8.997,-7 z"
     style="fill:#000000;fill-opacity:1;stroke:none;stroke-width:0.243217;stroke-linecap:round;stroke-linejoin:round;stroke-opacity:1;stop-color:#000000"
     id="path14" /><path
     d="m 140.946,61.682 -7.538,0.045 0.9,-38.677 7.777,-3.54 z"
     style="fill:#000000;fill-opacity:1;stroke:none;stroke-width:0.23995;stroke-linecap:round;stroke-linejoin:round;stroke-opacity:1;stop-color:#000000"
     id="path15" /><path
     d="m 140.572,60.413 -7.164,1.314 -24.53,-40.089 7.355,-1.365 z"
     style="fill:#000000;fill-opacity:1;stroke:none;stroke-width:0.239962;stroke-linecap:round;stroke-linejoin:round;stroke-opacity:1;stop-color:#000000"
     id="path16" /><path
     d="m 116.233,20.368 -7.558,0.058 0.92,34.255 7.777,7.001 z"
     style="fill:#000000;fill-opacity:1;stroke:none;stroke-width:0.237334;stroke-linecap:round;stroke-linejoin:round;stroke-opacity:1;stop-color:#000000"
     id="path17" /><path
     d="m 170.492,14.832 h -7.823 V 56.67 l 7.823,4.973 z"
     style="fill:#000000;fill-opacity:1;stroke:none;stroke-width:0.270306;stroke-linecap:round;stroke-linejoin:round;stroke-opacity:1;stop-color:#000000"
     id="path18" /><path
     d="m 148.261,54.727 -7.69,7 h 52.018 l -7.689,-7 h -32.344 z"
     style="fill:#000000;fill-opacity:1;stroke:none;stroke-width:0.224831;stroke-linecap:round;stroke-linejoin:round;stroke-opacity:1;stop-color:#000000"
     id="path19" /><path
     d="m 212.951,18.544 -7.939,-3.712 -16.375,35.794 4.594,11.101 z m 0,0 7.938,-3.712 16.376,35.794 -4.595,11.101 z"
     style="fill:#000000;fill-opacity:1;stroke:none;stroke-width:0.273906;stroke-linecap:round;stroke-linejoin:round;stroke-opacity:1;stop-color:#000000"
     id="path20" /><path
     d="m 200.748,35.422 v 7.001 h 46.215 l 15.247,-7 z"
     style="fill:#000000;fill-opacity:1;stroke:none;stroke-width:0.316613;stroke-linecap:round;stroke-linejoin:round;stroke-opacity:1;stop-color:#000000"
     id="path21" /><path
     d="m 298.229,14.833 16.997,9.175 32.843,0.114 18.005,-9.29 z"
     style="fill:#000000;fill-opacity:1;fill-rule:evenodd;stroke-width:3.13569;stroke-miterlimit:7;paint-order:stroke markers fill"
     id="path22" /><path
     d="m 321.873,38.28 c 0,12.95 -10.586,23.447 -23.644,23.447 -13.058,0 -23.644,-10.498 -23.644,-23.447 0,-12.949 10.586,-23.447 23.644,-23.447 13.058,0 23.644,10.497 23.644,23.447"
     style="display:inline;fill:#000000;fill-opacity:1;stroke-width:0.602695;stroke-dasharray:0.602695, 4.82156;stop-color:#000000"
     id="path23" /><path
     d="m 152.556,14.833 v 8.6 H 184.9 l 7.69,-8.6 z"
     style="fill:#000000;fill-opacity:1;stroke:none;stroke-width:0.24919;stroke-linecap:round;stroke-linejoin:round;stroke-opacity:1;stop-color:#000000"
     id="path24" /><path
     d="m 180.606,14.833 v 8.583 h -32.345 l -7.689,-8.584 z"
     style="fill:#000000;fill-opacity:1;stroke:none;stroke-width:0.248943;stroke-linecap:round;stroke-linejoin:round;stroke-opacity:1;stop-color:#000000"
     id="path25" /><g
     style="fill:url(#c);fill-opacity:1"
     id="g30"
     transform="translate(-14.384,-110.923)"><g
       style="fill:url(#d);fill-opacity:1"
       id="g28"><path
         d="m 193.429,125.756 -1.763,2.47 -0.015,0.021 -4.455,6.171 12.844,0.044 6.934,-8.706 z"
         style="fill:url(#e);fill-opacity:1;fill-rule:evenodd;stroke-width:3.10604;stroke-miterlimit:7;paint-order:stroke markers fill"
         id="path26" /><path
         d="m 184.877,137.632 -7.824,10.838 v 17.142 l 7.824,-10.597 z"
         style="fill:url(#f);fill-opacity:1;stroke:none;stroke-width:0.270306;stroke-linecap:round;stroke-linejoin:round;stroke-opacity:1;stop-color:#000000"
         id="path27" /><path
         d="m 164.65,165.65 -5.053,7 h 12.259 l 5.169,-7 h -10.086 z"
         style="fill:url(#g);fill-opacity:1;stroke:none;stroke-width:0.224831;stroke-linecap:round;stroke-linejoin:round;stroke-opacity:1;stop-color:#000000"
         id="path28" /></g><path
       d="m 186.042,125.756 -0.308,0.428 -0.915,1.272 -4.991,6.937 5.344,0.018 4.968,-6.89 1.293,-1.765 z"
       style="fill:url(#h);fill-opacity:1;fill-rule:evenodd;stroke-width:3.10604;stroke-miterlimit:7;paint-order:stroke markers fill"
       id="path29" /><path
       d="m 184.877,127.375 -0.058,0.08 -7.766,10.795 v 7.42 l 7.824,-10.849 z"
       style="fill:url(#i);fill-opacity:1;stroke:none;stroke-width:0.270306;stroke-linecap:round;stroke-linejoin:round;stroke-opacity:1;stop-color:#000000"
       id="path30" /></g><path
     d="m 302.601,14.833 -0.308,0.428 -0.915,1.272 -23.829,33.122 a 23.5,23.5 0 0 0 2.395,3.491 l 25.282,-34.535 h 10e-4 l 2.766,-3.778 z m 20.96,0 -12.838,0.004 -2.932,4.11 -0.338,0.472 -25.57,35.802 a 23.7,23.7 0 0 0 8.974,5.345 l 26.14,-36.55 z"
     style="fill:url(#j);fill-opacity:1;fill-rule:evenodd;stroke-width:3.13569;stroke-miterlimit:7;paint-order:stroke markers fill"
     id="path31" /></svg>
